<mxfile host="app.diagrams.net" agent="Mozilla/5.0 (Windows NT 10.0; Win64; x64) AppleWebKit/537.36 (KHTML, like Gecko) Chrome/131.0.0.0 Safari/537.36" version="24.7.10">
  <diagram name="ZMODEM" id="9NnCMgz5I5f5Khc_K4KG">
    <mxGraphModel dx="2832" dy="1511" grid="1" gridSize="10" guides="1" tooltips="1" connect="1" arrows="1" fold="1" page="1" pageScale="1" pageWidth="850" pageHeight="1100" math="0" shadow="0">
      <root>
        <mxCell id="0" />
        <mxCell id="1" parent="0" />
        <mxCell id="K8sxbqZf8PEx4ZF-4348-6" value="" style="shape=image;verticalLabelPosition=bottom;labelBackgroundColor=default;verticalAlign=top;aspect=fixed;imageAspect=0;image=data:image/png,iVBORw0KGgoAAAANSUhEUgAAA8UAAAQeCAIAAAB+Dg9ZAAAgAElEQVR4Aezd/1cUZ573//sfSe0Pn73PkfNxyTHHozfc7upHR4xmJBgFB0XFETeKmQlfEqOSaDQEvyCiDmrU6ETjKGoUNQaVxIDYwRAUQTFii9g0It0SQiQEERrOZ3au3drebmj76q6qLppnTp+Zovqq67r6UW+TV19WFf9rwOXkhQACCCCAAAIIIIAAAoEJ/K/ADuMoBBBAAAEEEEAAAQQQGHA5ydMszyOAAAIIIIAAAgggELgAeTpwO76QIYAAAggggAACCCBAniZPI4AAAggggAACCCAQuAB5OnA7vo0hgAACCCCAAAIIIECeJk8jgAACCCCAAAIIIBC4AHk6cDu+jSGAAAIIIIAAAgggQJ4mTyOAAAIIIIAAAgggELgAeTpwO76NIYAAAggggAACCCBAniZPI4AAAggggAACCCAQuAB5OnA7vo0hgAACCCCAAAIIIECeJk8jgAACCCCAAAIIIBC4AHk6cDu+jSGAAAIIIIAAAgYItLdZbY3V/X0OA8ZiiAAEyNPkaQQQQAABBBBAwLwCz35rzlqTrihK7MzpuVvWX/76dEd7QwCZj0P0EyBPm/fPj35nnZ4RQAABBBBAYLgI9Pa05Hz8/vJli/+yY9PH2VmTJk2IiBiVnra87vZVbVes+/scd3+seOK4O1xkzDNP8jR5GgEEEEAAAQQQMK/AZwcLYmdOf3C/SsRHV2/r3R8r3slcMWbMy58dLOjtadEqVna0NyQvSkxZsoBILUtKnjbvnx/Zc0l7BBBAAAEEEAg/gZKLJxVFqaoscf9o/X2O0198FhExqvr6Zff9QW43N9Xu3L7xROGB3p6W+/d+6Ol+FGSHI+Rw8jR5GgEEEEAAAQQQMK9AVWVJzNTJN6tLN21c+7fPP3niuNveZm1suP5O5gr3deue7kcVluK9e/LKy8655+Ce7kflZed2F+Re++6Cq7fVPeA+fnS78Oj+Q3/d1dxU675/wOWsqizxCPH9fY6jR/a++85bXZ22AZdz0OGcrT++n5X52oyYJX9MKj5/zH0aHv2H2Y/k6UH+/PT3OSosxY/st8LsZPNxEEAAAQQQQGDYCVRVlkyLmXKj6pvkRYmK2z+Lk+fdv/eD+Dhtzvq0t5dFRo5+bUaMoigfbVgjsqzYLw6KiBj12cECccl1f5/jwleFUVHjYqZOjooaFxU1ruZmmbtMg7VqWsyUolOH1J2Ox3fmJc45emRvf59j0OE62huWL1scFTUua02GuM77ncwVbc56tYcw3iBPD5KnO39pTHt72Y78nDA+8Xw0BBBAAAEEEBgWAufOHJkWM6XBWnX/3g9J8xMURdm7J6/NWa8uNnd12rLWpCcvShTP1Lt04cRrM2L+voAt9sfOnH6zurS3p2XPrq2rV6V1d9kHXM5r312YOHFC4dH9Pd2Pfv7p/vJliwt2bh5wORusVe++89bTjgd9zx9vzd2wLS9bzd9Hj+xd8sekNmf9UMOVl50bO/aV765+JVS7Om1fnDioXvY9LKgDnmSY5GlxbX7ulvUr3/2T999ZyOq0ttQlxMeRp2XdaI8AAggggAACmgsUnTo0ceKEO3WWAZfz55/uZ3+UFRU17sJXherDPS58VagoypzZsTvyc3bk58z8/auZGaldnbaqypKoqHFqwP3pyb27P1b09zk62huWpiyMjBy9elXa7oLcle/+acyYly3l50WeXvLHJBGlysvOLXsz+WnHgwGX806d5bUZMaKroYYrOnVoQdLc9jar5gLm73DY5+k2Z72471VRlMXJ8zIzUkXBBUNfW3Nl7NhXstakP/utOZh+OBYBBBBAAAEEEAhSwON+xN6els8OFqgP9xB/qb5n19aSiyfnzI79x+UW6c7WHwdczpKLJ2OmTlavCVGnUV52Lnbm9KrKko82rImMHJ0QH3fhq0Kx2t3cVPvGrJni3sfmptq5CbPKSs8+cdxNWbJgd0Fub0+Lj+H2780nTw9y2YPqbs6N5qba7ds+jowcHRk5+sN171nrK9UvakFO+PuKi4qiqH/HEWRvHI4AAggggAACCAQsIG4NdL+Uub/PUXr5zMSJE/Z9su2J4+6CpLnlZee8+7fbat6YNTNpfsL3FRefP/vvx+oVnTqU9vayzl8avQ9pb7MuSJorxurvcxzYv0Nce521Jl3chigaDDrcjvychPi41pY6727Dfs9wXZ8Wp3PMmJePHN4zaEEEc+aKTh1SFEVcSBRMPxyLAAIIIIAAAggEKdBgrXpj1kyP+wXFDYVrP3j3pyf3MjNSV777p0HjUN3tq4uT54lM/HrsjI+zs65e+bKs9GxU1LirV770Xojs6X60bu3K7ysuijl3ddo+XPee+22FXZ22oYYrPLp/Vtzvg7/sNkiukBw+XPN0b0/L7oJccY1Hzc0y9ZJ8d8RBn+QiGrh6W9vbrINW3oDLWXTqUETEKHEhkWg/aFcj9qEw7shsI4AAAggggEBoBe7UWabFTFmcPK/0clFrS11VZUnulvXTX50qVgZdva3NTbVnTh/+ODvr9dgZq1el/fTknvgb/l1/2WKtr2x6ePPUyb8uX7b49dgZjQ3XXb2t3jnb/QMONdz2bR8/uF/l+1j3fsJpe7jm6QGX09XbWmEpFt+65syO9XjM4aBPchGXCnX+0njm9OGIiFHLly3uaG8YcDm7u+wHP90ZM3XyWytSHtyvKjp1aF7iHPUJL4N2NZIfChNOfwD4LAgggAACCISBgN1W897KP0dGjlYUJSJi1NKUhYVH94tbCQf9dD3dj86cPhw7c7pYup40acLmTeuqr1/2Mw3LDjfoHMJp5zDO0+I0iCd7fLjuvcjI0UtTFoq/ZRjqSS5VlSULkuaeP3d04sQJS1MWirtZxVJ3VNS4zZvW5W5Z/9nBgn2fbFMvqB+qq5H8UJhw+gPAZ0EAAQQQQCBsBHp7WjraG6R+A/mvTx/++vRhYAIBDBfYQOY/atjnaZXY1lidvChRPCBmqCe5iDtkIyJGnf7is65O2+pVafv35tfWXPndlEnXvrsgurLWV06LmaI+mGaorkbyQ2FUczYQQAABBBBAAAEEhmWe7nv++Ksvj3196QuPb2Bfnv1b7MzpP975Lu3tZYM+OEbcaKj+0qCCnZu35WVfunBCvcv155/uZ2akpqctf2tFSuHR/TwUhj8hCCCAAAIIIIAAAr4FhmWefv6sJefj98XNiH/ZsWl3Qe7ugtysNRlRUeN2F+Q6W38c6sExBTs3u/+m+5KLJ9PeXlZy8WTszOnXf/i67vbVpSkLU5YseOK4e+GrwvS05XZbzVBdjeSHwvguKd5FAAEEEEAAAQRGlMCwzNMDLmdXp+1s0eepy/8YFTVOUZTIyNGLk+eJWxJ9PMmlwVr19aUv1Gvtna0/vpO54uaNb1OWLBDX47+TuUI8Ar2jveGtFSnXvrvAQ2FG1J8HPiwCCCCAAAIIICArMFzztO/POdSTXIZ6pPTzZy3tbdaO9gb35+6J58UM1dVIfiiMb3zeRQABBBBAAAEERpRAeObpAZdTwye5aNjViKotPiwCCCCAAAIIIDASBMI2T4uTp+GTXDTsaiQUFp8RAQQQQAABBBAYIQJhnqdHyFnkYyKAAAIIIIAAAgiESoA87QwVPeMigAACCCCAAAIIhIEAeZo8jQACCCCAAAIIIIBA4ALk6cDtwuDrFB8BAQQQQAABBBBAIEgB8jR5GgEEEEAAAQQQQACBwAXI04HbBflVhsMRQAABBBBAAAEEwkCAPE2eRgABBBBAAAEEwlPgROGBE4UH8vOyvV/irQpLcYWl2G6rsdtqwiDXhuojkKfD889PqOqJcRFAAAEEEEAghAIiJWdmpEZHj1fk/0mIj8vMSM3PyyZeS51E8jR5GgEEEEAAAQQQGPYCFZbihPg4NUJnZqRmZqQmxMclxMdFR48XL/Gj+r+ijfv/uqfwzIxUUrWfqXoE5Wnx9x2ittTC8iiv/Lxs9W89+BsQP2uIZggggAACCCAQWoHMjFSRpBPi4yosxcFMxm6rcY/mJwoPBNPbCDk2bPP0icIDanRWv6sFvBF8dY6QeuJjIoAAAggggIDBAvl52SLh5Odlazh0haVYLFdr262GMzRPV2GYp92/VInyElcCuV93X2EpFj+K//W+SF/d434FEvVknsJlJggggAACCCAw4HLabTV6hGlhqyZ1LvzwXWzhlqdPFB5QF6G1uppe/X6mKAr15LueeBcBBBBAAAEEjBQQkTc6erxOg4olaq768M0bbnlahGk9Ls+gnnxXEu8igAACCCCAgPEC4h5E/f4KXfSfmZFq/EcbRiOGVZ7W9Sua3VYTHT0+IT5uGJ1dpooAAggggAAC4S0g1vv0+/tzcaejfnk9PM5OWOVpsTgd5G2tPs6rKCn9+vcxNG8hgAACCCCAAALeAoqi6Hexx4DLKa6kJU97y7vvCbc8revfR4j1by4hci8gthFAAAEEEEAghAKKougadissxYqiEH58n2LytMTz2/mK5ruYeBcBBBBAAAEEDBYgTxsMPuhw4ZanDfiKpusQg54kdiKAAAIIIIAAAoMKkKcHZTF4J3laYn2av/IwuDoZDgEEEEAAAQR8C5CnffsY82645Wldr58mTxtTlIyCAAIIIIAAAn4KkKf9hNK1GXma9WkJAV1rkc4RQAABBBBAQFaAPC0rpkd78rREmmR9Wo8SpE8EEEAAAQQQCFiAPB0wnYYHkqfJ0xICGlYeXSGAAAIIIIBA8ALk6eANg++BPC2RJlmfDr7g6AEBBBBAAAEENBQgT2uIGXBX5GnytIRAwHXGgQgggAACCCCghwB5Wg9V2T7J0xJpkvVp2fKiPQIIIIAAAgjoKkCe1pXXz87J0+RpCQE/q4pmCCCAAAIIIGCMAHnaGGffo5CnJdIk69O+i4l3EUAAAQQQQMBgAfK0weCDDhdueTohPm7Qz6nJTvK0Jox0ggACCCCAAAJaCZCntZIMph/yNOvTEgLBlBrHIoAAAggggIDmAuRpzUkD6DCs8nR09HjWpwMoAg5BAAEEEEAAgWEqQJ42w4kjT0usznK9hxlKljkggAACCCCAgCpAnlYpQrhBniZPSwiEsFIZGgEEEEAAAQS8BcjT3ibG7yFPS6RJ1qeNL1BGRAABBBBAAAEfAuRpHziGvUWeJk9LCBhWlwyEAAIIIIAAAv4IkKf9UdK7DXlaIk2yPq13OdI/AggggAACCEgJkKeluHRqTJ4mT0sI6FSFdIsAAggggAACgQmQpwNz0/aocMvT0dHjtQVy7431aXcNthFAAAEEEEAg5ALk6ZCfggGXkzwtsTpLnjZDyTIHBBBAAAEEEFAFyNMqRQg3yNPkaQmBEFYqQyOAAAIIIICAtwB52tvE+D3kaYk0yfq08QXKiAgggAACCCDgQ4A87QPHsLfI0+RpCQHD6pKBEEAAAQQQQMAfAfK0P0p6tyFPS6RJ1qf1Lkf6RwABBBBAAAEpAfK0FJdOjcnT5GkJAZ2qkG4RQAABBBBAIDAB8nRgbtoeRZ6WSJOsT2tbfPSGAAIIIIAAAkEKkKeDBNTk8HDL04qiaOIyaCfk6UFZ2IkAAggggAACoRIgT4dK3n1c8jTr0xIC7qXDNgIIIIAAAgiEXIA8HfJTEG6/zyUhPo71aTNUFXNAAAEEEEAAAWMEyNPGOPseJazWp8nTvk827yKAAAIIIIBAmAmQp81wQsnTElc7cP20GUqWOSCAAAIIIICAKkCeVilCuEGeJk9LCISwUhkaAQQQQAABBLwFyNPeJsbvIU9LpEnWp40vUEZEAAEEEEAAAR8C5GkfOIa9RZ4mT0sIGFaXDIQAAggggAAC/giQp/1R0rsNeVoiTbI+rXc50j8CCCCAAAIISAmQp6W4dGochnnabqvRCYs8rRMs3SKAAAIIIIBAYALk6cDctD2KPM36tISAtsVHbwgggAACCCAQpAB5OkhATQ4nT0ukSdanNak5OkEAAQQQQAABrQTI01pJBtMPeZo8LSEQTKlxLAIIIIAAAghoLkCe1pw0gA7J0xJpkvXpACqMQxBAAAEEEEBAPwHytH62/vdMniZPSwj4X1i0RAABBBBAAAEDBMjTBiC/cAjytESaZH36hfVEAwQQQAABBBAwUoA8baT2UGORp8nTEgJDlRH7EUAAAQQQQCAkAuTpkLB7DBpWeTozI1VRFJ4/7XGO+REBBBBAAAEEwlWAPG2GMxuGebrCUqyTLNd76ARLtwgggAACCCAQmAB5OjA3bY8iT0tc7UCe1rb46A0BBBBAAAEEghQgTwcJqMnh5GnytISAJjVHJwgggAACCCCglQB5WivJYPohT0ukSdangyk1jkUAAQQQQAABzQXI05qTBtAheZo8LSEQQIVxCAIIIIAAAgjoJ0Ce1s/W/57J0xJpkvVp/wuLlggggAACCCBggAB52gDkFw5BniZPSwi8sJ5ogAACCCCAAAJGCpCnjdQeaizytESaZH16qDJiPwIIIIAAAgiERIA8HRJ2j0HJ0+RpCQGP6uFHBBBAAAEEEAitAHk6tP5idPK0RJpkfdoMJcscEEDAAAFXb2tvT4sBAzEEAggEKUCeDhJQk8PDME+fKDygCY13J+RpbxP2IICAKtDT/chaX9nT/UjdY8DGzz/dv1Nn6e9zaDhWV6cta03654d236wurbx2qc1Zr2HndIUAAtoKkKe19QysN/I069MSAoEVGUchMEIEzp05oihKVNS4rDUZhUf3NzfVunpbB/3s7W3Ws0Wfl5ed8xG+n/3W3NvT0t1l//Xpw0E7ETuLTh1akDS3vc3qo43sW0WnDilu/0RFjbvwVaG2kV12SrRHAIGhBMjTQ8kYuZ88LZEmWZ82sjQZCwHzCPz80/2y0rN36iw3q0vbnPVPOx4MGi6/vvRFQnxc7pb1O/JzEv8wW1GUObNji88f8wjNbc76pSkLRV5dnDyv7vZV9ZP29rQc+uuuhPi4pPkJkyZNEG0mT/63e3evqW1++bnBvcOCnZszM1K7Om1qg96elp+e3LtZXVphKS48un93Qe7ugtwd+Tnb8rJtjdVqs6E2On9pTHt72dixr5SVnnX1tnZ12rblZXvMYahj2Y8AAsYLkKeNN/cekTxNnpYQ8C4g9iAwEgSqr1+OiBjltmL735uRkaO//aZowOWsu3114sQJZ4s+V0HanPX7PtkWFTUu7e1l6iUTrt7Wk8cPKopy/NinVZUlG9avjooad+27C+Konu5HW3M3zEuc83rsjLFjX9mau6G87NzN6tLuLrto0NHekLwo8bODBeLHvuePN29ad+Twnt6elpvVpTvycxLi4/57cv/Ymv7q1KT5CeJ17G/71OkNtVFbcyUhPu5G1Tfq9dOdvzSmpy0/cnjPUIewHwEEQihAng4hvjo0eVoiTbI+rdYNGwiMKAFXb2tHe0N7m7W9zdr08GaFpbjCUry7IHfMmJenxUy5U2cZcDmbm2pnxf1+R36Oh4y1vnJazJSCnZsHXM7enpZPdudFRIxamrJQLBX39rTsLsh9Y9ZMu63G/cCqypKE+LjWljr3nQMuZ5uzfl7inKw16c9+ax5wOUW8/vLs3zIzUsWlJms/ePfy16fLSs8uTVm4c/vGQdfR1T57e1o62hvU3Cz279+bv27tSvcl8AGXs2Dn5g3rVz9/xh2KEv/JUJ3ZQEBXAfK0rrx+dk6elviXI3naz6qiGQJhL9DcVJu8KDFpfsL9ez+ID9veZl2QNPfk8YPnzx39cN17jQ3X29usTxx3D/1115gxL58t+ry/z/HZwYIxY14+c/qwe8x1PL4zL3FO4dH97mglF0+mvb2s85dG950DLuedOsvEiRPUt+7f+2Fe4px7d78/f+7o8WOfqsvY3V321avSik4d8jh8wOVsbLj+2owYjzXsBUlzGxuuD7icTzseLHsz2fvAL04cXL0qTe3fu1v2IIBAqATI06GSdx83rPJ0fl62oig838P9BLONAALaCvT3OSzl56fFTMn+KOvnn+6rnYs8XXTqUMHOze5pddKkCV99eczV2yoWsHcX5HqsB4trNtQlZ9HhFycODroeXHh0v6Io6g2IQ8VuH3m6u8t+o+obscReYSk+cnjPWytSVr77pyeOuwMuZ4O16vXYGbU1V9TPNeBy9vc5tuVlb960ru/5Y/f9bCOAgBkEyNNmOAvkadanJQTMULLMAYEQCnR32fd9sm3s2FdOHj/oEYvFum/RqUOdvzRu2rhWUZTU5X9ssP6gXiNRVVkSM3Wyup494HKeLfr8vZV/bnPWr1u70iOt7sjP2b833+OTdnXaMjNSE+LjJk/+tzt1lp7uR+vWrvRuNuBy+sjT7n12d9mt9ZVVlSVPHHfF2nODtSohPk5cwaK2fPzo9tyEWRe+KlT3sIEAAuYRIE+b4VyQpyXSJNd7mKFkmQMCoRKwNVYvTVn4xqyZt2rLvefQYK2aFjNF3LTX29Ny5vThqKhxWzZ/qD55o6qyZOLECe5RVaxkL/lj0sSJEyzl59U+RRouuXhS3SM27t29tiBpbuW1SwnxcUWnDt2ps7w2I+bmjW89mql5etA7CG2N1Svf/ZP780PEavobs2Y+st8S3wrKy86pffb3OY4e2TsvcY7j8R11JxsIIGAeAfK0Gc4FeZo8LSFghpJlDggYL9DT/ejM6cO/mzJpY84H7td4uM/E+37EG1XfTIuZoj7co7mpNiE+zj1h3/2xImbqZEVRPB54Jy5irqosce9/wOU8cnjP6lVpnb80bt60blrMlDmzYz0OVNuLRO59c+SAy6k+JDsjfXnh0f3iwg/1l7aIJfD3Vv5Z/Rpw7bsLEydO8LjmWx2IDQQQCLkAeTrkp2DA5SRPS6RJ1qfNULLMAQEjBfr7HDeqvlmcPG9azJTysnPi97P09zna26wVluI9u7YuTVm4ZnX6I/stcf20x0174rbFFalL2pz1/X2OM6cPR0SMiooal/1RVtaa9OmvThVrwzkfv69ePfK040HJxZOTJ//bB++/k7UmPWl+wpbNH3b+0vj8WcuG9au/OHFwwOWsuVkWFTVOUZShrsEQedrjGhLh1tP9yNZYPdQvmhlwOS98Vagoyra87Jbm28ePfeqxym4kPmMhgIA/AuRpf5T0bhOGeTo/L1snNfK0TrB0i4BpBUQwVRQl+6OsCkuxpfz8p/u2z5kdK3KweLTznNmxe/fkiZYH9u9wf3bHgMv54H7VitQlDdYqcWPfrdpy8ctcoqLGpS7/49UrX5aVnv3dlEnfXf1qwOWsrbkyduwrovPIyNELkuZuy8v+vuJib0+Ler+jeO7ep/u2b9q4Vl1F9gB89ltz1pp0j3scPdoM9WN3l33n9o3ieduRkaMP/XWXx7PzhjqQ/QggEBIB8nRI2D0GJU+zPi0h4FE9/IjASBCovn5Z/LJDEXNfj52xbu3KstKzHe0Nmnx8sW4tnqohHr7R9PDmg/tVHim2u8u+Z9dWf37BoZiVrbFaPLIjgEm6elv//qCPm9WlQ+X1APrkEAQQ0EmAPK0TrFS35GmJNMn6tFRt0RiBcBLo7rIP9WvGg/+Y4ve8TH91qvvvFQ++W3pAAIGRIECeNsNZJk+TpyUEzFCyzAGBcBX49elD9eF64foZ+VwIIKC5AHlac9IAOiRPS6RJ1qcDqDAOQQABBBBAAAH9BMjT+tn63zN5mjwtIeB/YdESAQQQQAABBAwQIE8bgPzCIcjTEmmS9ekX1hMNEEAAAQQQQMBIAfK0kdpDjUWeJk9LCAxVRuxHAAEEEEAAgZAIkKdDwu4xKHlaIk2yPu1RPfyIAAIIIIAAAkEKVFiKMzNSTxQeqLAUB9AVeToANM0PIU+TpyUENK8/OkQAAQQQQGCEC5woPCAeb68oSnT0+Py8bKlgTZ42Q/2EYZ7OzEjVSZb1aZ1g6RYBBBBAAIGRLGC31ZwoPJCZkeoRrP0xIU/7o6R3m7DK0+IbHnla76KhfwQQQAABBBDQQ0AE64T4OBGso6PHZ2ak+l6uJk/rcSJk+yRPS1ztwPq0bHnRHgEEEEAAAQQCELDbavLzst2DdX5ett1W490VedrbxPg95GnytISA8QXKiAgggAACCIxkAfdgHR09PiE+7kThAXcQ8rS7Rqi2ydMSaZL16VCVKeMigAACCCAwwgXsthr1Amv360DI02YoDPK0dJ7+/yb9a0J8HC8E/BSIjh7PCwEEwlJAvXWMDQRCJTBndix5mjwtkWX9wTLmfsRQ/ZlhXAQQQAABBBBAQBX4p3/6p5m/f5U87U9E1LsN69MSmV5c7/HuO2/l52WPqFdmRiqvoQT8XKUesc3CclVSkw+l/heRDQQQQCBIgfy8bP3yIhe7+mNLnpbO0x73AfijTBsEEEAAAQSGl4DdVsMr5AJniz5fvmyxSNvjx49d/+Gqs0Wfu89qwOVkfdoMf7LI0+RpCQEzlCxzQAABBBBAILwFxDM91EVr8UsTh/rI5OmhZIzcT56WSJP8lYeRpclYCCCAAAIIjCiBQWP0oM+cdmchT7trhGo7DPN0QnycTprkaZ1g6RYBBBBAAIGRLJCflx0dPV4sSIvVaN+/E9HdijztrhGqbfI069MSAqEqU8ZFAAEEEEAgXAXy87IVRZGN0aoGeVqlCOEGeVoiTbI+HcJKZWgEEEAAAQTCUsBuq/F/NdpbgDztbWL8HvI0eVpCwPgCZUQEEEAAAQQQ8CFAnvaBY9hb5GmJNMn6tGF1yUAIIIAAAggg4I8AedofJb3bkKfJ0xICepcj/SOAAAIIIICAlAB5WopLp8ZhlafF+jHP99CpVugWAQQQQAABBMwmQJ42wxkhT0usznK9hxlKljkggAACCCCAgCpAnlYpQrhBniZPSwiEsFIZGgEEEEAAAQS8BcjT3ibG7yFPS6RJ1qeNL1BGRAABBBBAAAEfAuRpHziGvUWeJk9LCBhWlwyEAHbmMy8AACAASURBVAIIIIAAAv4IkKf9UdK7DXlaIk2yPq13OdI/AggggAACCEgJkKeluHRqHIZ5Ojp6vE5Y5GmdYOkWAQQQQAABBAITIE8H5qbtUeRp1qclBLQtPnpDAAEEEEAAgSAFyNNBAmpyOHlaIk2yPq1JzdEJAggggAACCGglQJ7WSjKYfsjT5GkJgWBKjWMRQAABBBBAQHMB8rTmpAF0SJ6WSJOsTwdQYRyCAAIIIIAAAvoJkKf1s/W/Z/I0eVpCwP/CoiUCCCCAAAIIGCBAnjYA+YVDkKcl0iTr0y+sJxogMJIFerofWesre7ofaYXQ3+e4fav8accDrTqkHwQQCD8B8rQZzil5mjwtIWCGkmUOCJhW4NyZI4qiREWNy1qTUXh0f3NTrau3ddDZPn/WIl5POx709zkGbTPgcra3WRckzS06dWioBgHsf2S/VXz+2PNnLQEcyyEIIGBCAfK0GU4KeVoiTbI+bYaSZQ4IGC/w80/3y0rP3qmz3KwubXPWDxWCv770RUJ8XO6W9TvycxL/MFtRlDmzY4vPHxMr1v19jgtfFSb+YXbS/ITpr05V/vFPRMQoS/l59RP1dD/65ecG9cfGhuuxM6e7N3D1tna0N9TdvlphKT5z+vDugtzdBbl/2bFp86Z1tTVX1AOH2njiuJuyZMHqVWndXfah2rAfAQSGlwB52gznizxNnpYQMEPJMgcEjBeovn45ImKUSMAe/xsZOfrbb4oGXM6621cnTpxwtuhzdXptzvp9n2yLihqX9vayNmd9f5/j80O7E/8we87s2IiIUes/XHX569NVlSWdvzSqh5w7cyQhPq65qVbsuVNnWZw8r6X5trW+8tN92xckzfWYxqRJE5LmJ4jXjvwc36vOXZ22rDXpiqKQp1VwNhAIAwHytBlOInlaIk2yPm2GkmUOCBgvIFaF29us7W3Wpoc3KyzFFZbi3QW5Y8a8PC1myp06y4DL2dxUOyvu9zvyczymZ62vnBYzpWDnZnV/g7UqIT5OHKXuFBtfnDgYETGq+vpl8eO5M0fe/PfknI/fVxQlMnJ02tvLLhYfr7AUv7fyzy/MxP19jqcdD9zXoa//8PXSlIUJ8XEvPNZjVvyIAAJmFiBPm+HshFWetttqFEXh942bobCYAwLhLdDcVJu8KDFpfsL9ez+ITyqudT55/OD5c0c/XPdeY8P19jbrE8fdQ3/dNWbMy+7r1rU1VxYkzW1tqfMg6nv+ePOmdYqilJedG3A5+/sc2/Kyd27fePXKl5/u2/7zT/fV9jvyc7yD+4DL+ey3ZrEC7b6IPmnShOLzx9yPJU+rGmwgEAYC5GkznETyNOvTEgJmKFnmgEBoBfr7HJby89NipmR/lOWecdV7Bwt2bvaIs199ecz9xsTvKy4uezPZ+6kdjsd35iXOURRF3ID4tOPBsjeTRbb2+MhD5en+PsfdHyvE8nmFpfhi8fGsNenJixIrr11Se/j7ZSHkaVWDDQTCQIA8bYaTGIZ5WlEUnWS53kMnWLpFYLgIdHfZ932ybezYV04eP9jb8z8ekdHYcP21GTFFpw51/tK4aeNaRVFSl/+xwfqD9zXNRacObVi/2nu/pfz876ZMmv7q1M2b1vU9f3zzxrdzE2ap11K7Ew2Vp93b9Pa0tDTfrrx2qenhTfUGSrHmTZ52h2IbgeEuQJ42wxkkT0uszpKnzVCyzAGBUAnYGquXpix8Y9bMW7Xl3nNosFZNi5ly5PCeAZezt6flzOnDUVHjtmz+sKvT5tF4R37O/r35Hjv7nj/emrth3yfbjhzesyBprrP1xy2bP1y3duWgT7PekZ8jMrdHJ12dtr178pLmJ7weO8N9jVxRlMtfnx5wObu77KtXpQ16rYhHV/yIAALDRYA8bYYzRZ4mT0sImKFkmQMCxgv0dD86c/rw76ZM2pjzgfs1Hu4z8b4f8UbVN9NipoiHe6gtnz9r2bB+tfcjpVtb6uYmzKqqLLlTZ5k4ccKCpLlRUePcn5Sn9jDgcg51zYZYI4+IGLUgae6eXVvLy86Jaz8arFXighPytDsj2wiEhwB52gznkTwtkSZZnzZDyTIHBIwU6O9z3Kj6ZnHyvGkxU8rLzolU2t/naG+zVliK9+zaujRl4ZrV6Y/st8T10x6XUojbFlekLmlz1ovl4R++vzRnduzbf37z4+yspPkJq1eliRsTa2uuJC9KbHPW93Q/+mjDGkVRlqYs7Gj/72dRu3/qHfk5aW8vc3/Qnni3v8/R3FTrvSKuHkueVinYQCBsBMjTZjiV5GnytISAGUqWOSBgpIAIoIqiZH+UVWEptpSf/3Tf9jmzY8XVFNNfnZo0P2HO7Ni9e/JEywP7d3j8vsMH96tWpC5psFaJBWxxYETEqDmzYz/Ozrr89WnxSLuiU4cWJM1tb7MOuJwN1qq3VqS430To8ZELdm5OXpQ4VNr2aOz+Y0d7Q8qSBVzv4W7CNgLDXYA8bYYzSJ6WSJOsT5uhZJkDAgYLVF+/LH7ZoYjCr8fOWLd2ZVnpWdk429vTUltzxVpf2dhw3XsJ+UbVN8ePfdr3/LE/n+6J466tsdqflh5t+vscjQ3XB73H0aMlPyKAwHARIE+b4UyRp8nTEgJmKFnmgEBIBLq77OpTMkIyAQZFAAEEBhUgTw/KYvBO8rREmmR92uDqZDgEEEAAAQQQ8C1AnvbtY8y75GnytISAMUXJKAgggAACCCDgpwB52k8oXZuRpyXSJOvTutYinSOAAAIIIICArAB5WlZMj/bkaePytN1Wk5+XnRAfFx09Xo9zSZ8IIIAAAgggMNIEyNNmOOPkad3ztIjR7r+rLD8v2wznnjkggAACCCCAwHAXIE+b4QyGZ56222r0wJW63sM7RkdHjydJ63Fe6BMBBBBAAIERK0CeNsOpD6s8PeByimXg0Obp/Lzs6Ojx6oK0iNE6TckMNcQcEEAAAQQQQCBUAuTpUMm7j0ue1ux6D48FaRGjKyzF7txsI4AAAggggAACGgqQpzXEDLgr8rQGedpjQTozI/VE4YGATwkHIoAAAggggAACfgqQp/2E0rUZeTrwPP3Vl8fUizqC34iOHq/3KyE+TtdXZkaq3q/8vGz9XicKD+j9qrAU6/2y22p0fen67yM6RwABBBCQFSBPy4rp0Z48HXieVjP0Sy+9pG6zgQACwQjo/a1yOPav69dg/TrX+9u1Tv3r941dp571XgXQqX+9VxZ06l/X1QrZztVQSJ5WKUK4QZ4OPE9nrUn/13+NFtHh5Zf/ZWnKwr178nT6V0/w3er0r3K69VNAp//2j+Ru9QuCas+6hu9gvnVwLAIIIJAQHyfiI3k6hDFaHZo8HXieFogetyEmxMdx8bRaXmwggIDBArJLXH6212O1L/hlgkF78PMrrlQznb64qt/ctN3Q43sg4dVsApkZqeoDD8jTBv9rdtDhyNPB5mnBarfVnCg8kJmRKv7IRUeP567EQQuOnQgggAACCAgBP7/OyTYbCV//3EuIPO2uEapt8rQ2eVo9fyJYJ8THuQdr9Uuk2owNBBBAAAEEEEAgeAHydPCGwfdAntY4T6unhGCtUrCBAAIIIIAAAjoJkKd1gpXqljytV55WT4N3sOa3jqs4bCCAAAIIIIBAMALk6WD0tDqWPK17nlZPlbhzUfwqcnUnGwgggAACCCCAQMAC5OmA6TQ8kDxtXJ4Wp81uq9Hw/NEVAggggAACCIxkAfK0Gc5+eOZpne7/q7AUK4rC4/DMULjMAQEEEEAAAQQGXE7ytBnKgDxt9Pq0Gc46c0AAAQQQQACB8BAgT5vhPJKnydMSAmYoWeaAAAIIIIAAAqoAeVqlCOFGuOVpcbcf13uEsKQYGgEEEEAAAQQMEyBPG0btYyDytMTqLNdP+6gk3kIAAQQQQAAB4wXI08abe49IniZPSwh4FxB7EEAAAQQQQCCEAuTpEOKrQ5OnJdIk69Nq3bCBAAIIIIAAAmYQIE+b4SyQp8nTEgJmKFnmgAACCCCAAAKqAHlapQjhBnlaIk2yPh3CSmVoBBBAAAEEEPAWIE97mxi/hzxNnpYQML5AGREBBBBAAAEEfAiQp33gGPYWeVoiTbI+bVhdMhACCCCAAAII+CNAnvZHSe825GnytISA3uVI/wgggAACCCAgJUCeluLSqTF5WiJNsj6tUxXSLQIIIIAAAggEJkCeDsxN26PI0+RpCQFti4/eEEAAAQQQQCBIAfJ0kICaHE6elkiTrE9rUnN0ggACCCCAAAJaCZCntZIMpp/wzNMnCg8EgzLUseTpoWTYjwACCCCAAAIhESBPh4TdY1DyNOvTEgIe1cOPCCCAAAIIIBBaAfJ0aP3F6ORpiTTJ+rQZSpY5IIAAAggggIAqQJ5WKUK4QZ4mT0sIhLBSGRoBBBBAAAEEvAXI094mxu8hT0ukSdanjS9QRkQAAQQQQAABHwLkaR84hr0Vbnk6IT5OURTuRzSsgBgIAQQQQAABBEIoQJ4OIb46NHma9WkJAbVu2EAAAQQQQAABMwiQp81wFsjTEmmS6z3MULLMAQEEEEAAAQRUAfK0ShHCDfI0eVpCIISVytAIIIAAAggg4C1AnvY2MX4PeVoiTbI+bXyBMiICCCCAAAII+BAgT/vAMewt8jR5WkLAsLpkIAQQQAABBBDwR4A87Y+S3m3I0xJpkvVpvcuR/hFAAAEEEEBASoA8LcWlU2PyNHlaQkCnKqRbBBBAAAEEEAhMgDwdmJu2R5GnJdIk69PaFh+9ITByBLq77O1t1rrbVxusVa7e1pHzwfmkCCCgtwB5Wm9hf/onT5OnJQT8KSnaIICAEOjustfdvnrk8J7FyfMUt39KLp4UDVy9rb/92uTqbX3a8aC3p0V1a22p+/abIvc96lseG78+ffj82X8f6PGuPz+6elvv/ljxtOOBP41pgwACJhQgT5vhpJCnJdIk69NmKFnmgEBoBX7+6X5Z6dk7dZab1aVtzvqnHQ/6+xweU3riuPvnP/27iNBzZsd+um979fXLbc769jZr08ObN6q++feli5LmJ8yZHRsRMUo025q7oe/5Y9HPZwcLstakP/ut2aPb/j6Hq7f1+bOWO3WW3C3rJ02aII79ZHeeeqzHIR4/9vc5zhZ9/u9LF3W0N4i3GhuuvzYj5tyZIx4t+REBBIaLAHnaDGeKPE2elhAwQ8kyBwRCK1B9/bIagt0Wnf9jMzJy9LffFA24nA/uV8XOnJ729jK7rcY7bd+qLU+anzAvcU5U1LhFC/9w5vThCkvxI/st0bK/z7Fz+8Yjh/d4f8yCnZvFiJGRo1evSrtYfLzCUnzy+MG1H7zb3WX3bu+xp7/Pceb04YkTJ1z77oL6VnnZudiZ05se3lT3sIEAAsNLgDxthvMVnnk6Py9bD1zWp/VQpU8EhpeAq7e1o72hvc0qFpsrLMUVluLdBbljxrw8LWbKnTrLgMvZ3WVfvSptR36Oj48m2njn5uam2qT5CbU1V7yPLTy6f+zYV04eP+hPen7+rKWjvcH9Wu07dZaYqZPPnD6sRnyR3TdvWufn8rb3lNiDAAIhFyBPh/wUDLic5GmJ1VnytBlKljkgYDaB5qba5EWJSfMT7t/7QczNnzz9tOPBsjeTy8vOeXyc8rJzS1MWqtdjuL9bVVmSEB/X2lKn7hS3OXa0N4iLrb3XziMiRmWkL29z1j9/1pLz8fvr1q7s6X6kHu54fGde4hzvOagN2EAAAfMLkKfNcI7I0+RpCQEzlCxzQMA8Av19Dkv5+WkxU7I/yvr5p/vqxESefm/ln2trrlRfv/zpvu1L/pgUFTXu9dgZDx/cEM3anPXJixI91qH7nj/emrth/958tSv3jarKkjmzY0svF1VYig9/tivxD7PVC07eW/nnrk7b044HldcuiSVzS/n5T/dtX5qycNPGtV2dtme/NWetSY+MHL1928eW8vMVluIzpw9/uO69qKhx3139yn0UthFAYHgJkKfNcL7I0xJpkvVpM5Qsc0DAJALdXfZ9n2wTF2B4PItD5Gk17CbEx+3ZtbX6+uWO9gb1WosGa9WSPyY1N9W6f5ymhzfnJc4RF4247xfb584cUftM/MPsw5/tanp489enD592PLA1Vqs9i8a/Pn1Yd/uquGlSPAPkwf2q5csWe1/8vWXzh1zv4a3NHgSGiwB52gxnKtzydGZGqn6FRZ42Q8kyBwTMIGBrrF6asvCNWTNv1ZZ7z0fk6WVvJl8sPj7olRsDLmdVZcmyN5M9HlRXeHR/2tvLOn9p9O5zwOUsOnXojVkzP9md552eRfub1aVvrUgRdzqqyVtRlBWpS7z77Pyl8a0VKdvysp847g46HDsRQGBYCOgXe8THJ/z4UwbkadanJQT8KSnaIBDeAj3dj86cPvy7KZM25nzgfo2H+6f25/rpkosnV69Kc7+z8IVH7cjPcb/Hsb/P8bTjgXrx9IDLKR4AMmnShKw16eKxIRWW4qrKEu8wPeBytrdZFyTNraoscZ852wggMOwEyNNmOGXkaYk0yVc0M5Qsc0AgVAL9fY4bVd8sTp43LWZKedk58eiM/j5He5u1wlK8Z9fWpSkL16xOf2S/JZLxUM/N6O1psdtqstZkvDFr5tbcDUtTFi5NWVhhKRZHTYuZcuivu8Q10OVl5/bvzd+7J6/u9tXenpbNm9ZNmjQhaX7C9Fenui8/K4qyZ9fWAZezq9PW3FTrceHHUFwiT3Mz4lA+7EdguAiQp81wpsjT5GkJATOULHNAIFQCIu8qipL9UVaFpVjc8DdndqyIttNfnSp+RcvePXnPn7VsWL96w/rV3r+8ULylpuHpr07NzEgtPLpfXHTxfcVF9be0qG3Ek61vVH2zNXfD2LGvKIoSO3N67pb1F4uPV1WWPHHcdV+i9h+n85fG9LTll78+7f8htEQAARMKkKfNcFLI0xJpkvVpM5Qsc0AghALV1y+7P1Xj9dgZ69auLCs9632R9PNnLd5hWszc1lh9s7q0uanW2fqj92dxf751R3tD3/PH4qIOsRz+/FmL+yUi3oezBwEERpoAedoMZ5w8TZ6WEDBDyTIHBEIu0N1lH/TXjId8YkwAAQRGoAB52gwnnTwtkSZZnzZDyTIHBBBAAAEEEFAFyNMqRQg3yNPkaQmBEFYqQyOAAAIIIICAtwB52tvE+D3kaYk0yfq08QXKiAgggAACCCDgQ4A87QPHsLfI0+RpCQHD6pKBEEAAAQQQQMAfAfK0P0p6tyFPS6RJ1qf1Lkf6RwABBBBAAAEpAfK0FJdOjcMzT2dmpOrhRZ7WQ5U+EUAAAQQQQEAIVFiKMzNSTxQe8B+EPO2/lX4tydOsT0sI6FeI9IwAAggggAACJwoPiN/lFB093s9gTZ42Q9mQpyXSJOvTZihZ5oAAAggggEAYC9htNfl52dHR492DdYWleKiPTJ4eSsbI/eRp8rSEgJGlyVgIIIAAAgiMWAG7reZE4YHMjFSRqhVFESvW3sGaPG2GIiFPS6RJ1qfNULLMAQEEEEAAgZEjMGiwzs/LVoM1edoMxUCeJk9LCJihZJkDAggggAACI1DAbqsRl4IkxMepl4Lk52WTp81QDOGWp0Vh8XwPM9QWc0AAAQQQQAABPQTsthr3S0Gmv/o7dbla8+H4y3l/SMnTEquzaknl52Xr9MrMSOWFgG+BhPg4Xgj4IxAdPZ4XAgELqJftsjFcBFakLvEn+cm2UcOP7IEjqj15OpA8rd51O1z+jDFPBBBAAAEEEAgngZdeesnj4+i0RE2e9ueLAXk6kDw94HKKa5h0WqWmW10FfK/+8u4wEvBnjZY2YS8Q8PorB45kAY8kOox+9I7R6uS52NWf4KtTG/J0gHlap/NBtwgggAACCCCAgIeAWMVTo7O4B9FuqxlwObkf0cMqJD+Sp8nTEgIhqVEGRQABBBBAYGQKePxuF/EU6vy8bJGkhQl52gy1QZ6WSJNcQmSGkmUOCCCAAAIIhL2A94J0dPT4/Lxs7w9OnvY2MX4PeZo8LSFgfIEyIgIIIIAAAiNHwHtBWl2THgqBPD2UjJH7ydMSaZL1aSNLk7EQQAABBBAYaQLi12iIDJ0QHzfogrSHCXnaAyQkP5KnydMSAiGpUQZFAAEEEEBghAjYbTUVlmL3y6Nf+MHJ0y8kMqABeVoiTbI+bUBFMgQCCCCAAAII+C9AnvbfSr+W5GnytISAfoVIzwgggAACCCAQgAB5OgA0zQ8hT0ukSdanNa8/OkQAAQQQQACBYATI08HoaXUseZo8LSGgVdnRDwIIIIAAAghoIkCe1oQxyE7CM08nxMcF6TLo4axPD8rCTgQQQAABBBAIlQB5OlTy7uOGW54+UXhAURTytPs5ZhsBBBBAAAEEwlWAPG2GM0uelrjagfVpM5Qsc0AAAQQQQAABVYA8rVKEcIM8TZ6WEAhhpTI0AggggAACCHgLkKe9TYzfQ56WSJOsTxtfoIyIAAIIIIAAAj4EyNM+cAx7izxNnpYQMKwuGQgBBBBAAAEE/BEgT/ujpHcb8rREmmR9Wu9ypH8EEEAAAQQQkBIgT0tx6dSYPE2elhDQqQrpFgEEEEAAAQQCEyBPB+am7VHkaYk0yfq0tsVHbwgggAACCCAQpAB5OkhATQ4nT5OnJQQ0qTk6QQABBBBAAAGtBMjTWkkG0w95WiJNsj4dTKlxLAIIIIAAAghoLkCe1pw0gA7J0+RpCYEAKoxDEEAAAQQQQEA/AfK0frb+90yelkiTrE/7X1i0RAABBBBAAAEDBMjTBiC/cAjyNHlaQuCF9UQDBBBAAAEEEDBSgDxtpPZQY5GnJdIk69NDlRH7EUAAAQQQQCAkAuTpkLB7DEqeJk9LCHhUDz8igAACCCCAQGgFyNOh9Rejk6cl0iTr02YoWeaAAAIIIIAAAqoAeVqlCOEGeZo8LSEQwkplaAQQQAABBBDwFiBPe5sYvyfc8rRYQk6Ij9ODkvVpPVTpEwEEEEAAAQQCFiBPB0yn4YHkaYnVWfK0hpVHVwgggAACCCAQvAB5OnjD4HsgT5OnJQSCLzh6QAABBBBAAAENBcjTGmIG3BV5WiJNsj4dcJ1xIAIIIIAAAgjoIUCe1kNVts/wzNPR0eNlIfxpT572R4k2CCCAAAIIIGCYAHnaMGofA5GnWZ+WEPBRSbyFAAIIIIAAAsYLkKeNN/cekTwtkSZZn/YuIPYggAACCCCAQAgFyNMhxFeHJk+TpyUE1LphAwEEEEAAAQTMIECeNsNZIE9LpEnWp81QsswBAQQQQAABBFQB8rRKEcIN8jR5WkIghJXK0AgggAACCCDgLUCe9jYxfg95WiJNsj5tfIEyIgIIIIAAAgj4ECBP+8Ax7C3yNHlaQsCwumQgBBBAAAEEEPBHgDztj5LebcjTEmmS9Wm9y5H+EUAAAQQQQEBKgDwtxaVTY/I0eVpCQKcqpFsEEEAAAQQQCEyAPB2Ym7ZHkacl0iTr09oWH70hgAACCCCAQJAC5OkgATU5nDxNnpYQ0KTm6AQBBBBAAAEEtBIgT2slGUw/5GmJNMn6dDClxrEIIIAAAgggoLkAeVpz0gA6JE+TpyUEAqgwDkEAAQQQQAAB/QTI0/rZ+t8zeVoiTbI+7X9h0RIBBBBAAAEEDBAgTxuA/MIhyNPkaQmBF9YTDRBAAAEEEEDASAHytJHaQ41FnpZIk6xPD1VG7EcAAQQQQACBkAiQp0PC7jEoeZo8LSHgUT38iAACCCCAAAKhFSBPh9ZfjE6elkiTrE+boWSZAwIIIIAAAgioAuRplSKEG+GWp+22GkVRoqPH62FKntZDlT4RQAABBBBAIGAB8nTAdBoeSJ5mfVpCQMPKoysEEEAAAQQQCF6APB28YfA9kKcl0iTr08EXHD0ggAACCCCAgIYC5GkNMQPuijxNnpYQCLjOOBABBBBAAAEE9BAgT+uhKttneOZpRVFkIfxpz/q0P0q0QQABBBBAAAHDBMjThlH7GIg8LbE6S572UUm8hQACCCCAAALGC5CnjTf3HpE8TZ6WEPAuIPYggAACCCCAQAgFyNMhxFeHJk9LpEnWp9W6YQMBBBBAAAEEzCBAnjbDWSBPk6clBMxQsswBAdMKdHfZnz9rMe30mBgCCISlAHnaDKeVPC2RJlmfNkPJMgcEzCnQ0d6QvChx5u9fPXn8oLW+0new7u9ztLdZq69fdrb+2N/n8PGJ2pz1f/v8k7dWpJReLvLRzOOtzl8aK69dKrl4suZmWU/3I493+REBBMJJgDxthrNJniZPSwiYoWSZAwLGC/z80/2y0rN36iw3q0vbnPVPOx54h+DuLvv6D1cp//VPZOTo97MyqypLenv+x4p1T/ejPbu2RkSM+q+GyuLkebdqyz067O6yl14+szRlYUTEqJipk1evSjv2t33+fPCe7keHP9sVFTVO7f+T3Xl9zx/7cyxtEEBgOAqQp81w1sjTEmmS9WkzlCxzQMB4gerrl90TsBpVFUWJjBz97Tf/uXLcYK2aFjPl0F93NT28efizXYl/mK0o/xGX79/7Qcy5t6dld0GuoihRUeO++vJYm7O+wVqVnrY8Kmrcte8uiDZdnbYzpw/P/P2r4tjSy0X+LzB3ddqy1qRPi5ny5dm/dXfZuzpt72SuWL0qrbvLbjwaIyKAgDEC5GljnH2PQp4mT0sI+C4m3kUgXAVcva0d7Q3tbdb2NmvTw5sVluIKS/HugtwxY16eFjPlTp1FfPDq65envzpVTc8DLmebs35jzgevx86w1lcOuJzfXf1q7NhXstZkWOsr1QXpnu5HBTs3x86cLtrsyM9RFGX1qjS7rUZt4w3b3+d42vHAPSiLsK72I7pVFGVB0tz2Nqt3D+xBAIHwECBPm+E8kqcl0iTr02YoWeaAgBkEmptqkxclJs1PcE/P584cWfZm8tOOB2KGvz59aK2v/GR33tixr5w8frCr05aZkZq1Jr2rnR6pzAAAIABJREFU0+bxERyP78xLnFOwc/OAy3ntuwtRUeMmTZpw+ovP3OPygMv57LfmrDXp7qvjiqJMmjSh+PyxAZezseH6azNiDv11V3+fw9ZYnZ62fObvX31v5Z/J0x7a/IhAmAmQp81wQsnT5GkJATOULHNAILQC/X0OS/n5aTFTsj/K+vmn++6TKdi5WVwBMmd2bGTkaBF8J02acPDTnd1d9tqaK1FR46oqS9wPEdviXsaiU4fEj3ZbzYfr3ouMHB0VNe4vOza1OevF/v4+x90fK8TqeIWl+GLx8aw16cmLEiuvXRpwOTvaG5YvWywGjYwcvX9vfucvjd9XXCRPe4OzB4FwEiBPm+Fskqcl0iTr02YoWeaAQAgFurvs+z7ZJtabPW40/PvD8lavSouKGpeRvnz/3nxL+fmW5tu/Pn2ozraqsmRazJQGa5W6R924fat8WsyU2por6h5xrchnBwtipk6eNGlC6eUij2s/entaWppvV1671PTwpnp/ZHubtfRy0flzR9UIXnTqUPKixI72Bvee2UYAgXASIE+b4WySp8nTEgJmKFnmgECoBGyN1UtTFr4xa+at2nLvObS3WRckzS25eNL7LbHn/r0fYqZO/r7iokcDcRPhUHcNdnXatuVlT578b/fuXuvqtO3dk5c0P+H12BkeV31c/vq0R7fix/1784fqedD27EQAgWEnQJ42wykjT0ukSdanzVCyzAEB4wV6uh+dOX34d1Mmbcz5wOMaD3Uy4vLlQS/nEG2edjxY9mZyypIFjx/dVo+y22reWpGi3kRYd/vqkcN7PIYQPRefPyY2IiJGLUiau2fX1vKyc+LajwZrlau3Ve3TfWNHfk7WmvRnvzW772QbAQTCSYA8bYazSZ4mT0sImKFkmQMCRgr09zluVH2zOHnetJgp5WXnRGwVv42lwlK8Z9fWpSkL16xOf2S/JR6W52N92v1ew/1788+cPpz29rLIyNFLUxY2N9WKD3X569PigdO5W9bvLsjdXZCbu2V97MzpKUsWPHHc7e9zNDfVet/O6ANkR37OjvwcHw14CwEEhrsAedoMZ5A8LZEmWZ82Q8kyBwSMFBBXRSuKkv1RVoWl2FJ+/tN92+fMjhWXW0x/dWrS/IQ5s2P37skTi8cXvir0PT27rWbVe29HRY2LjBy9fNnii8XH3R8v7eptvVH1zbq1K6e/OlUM8XrsjF1/2aJeD+27c+93LeXnd27f6L2fPQggEDYC5GkznEryNHlaQsAMJcscEDBYoPr6ZfGbWdSAu27tyrLSsx43+fX3Of6eld3DscHzHHQ4V2+r2aY06DzZiQACAQuQpwOm0/BA8rREmmR9WsPKoysEhpdAd5ddfYzG8Jo5s0UAgfAWIE+b4fySp8nTEgJmKFnmgAACCCCAAAKqAHlapQjhBnlaIk2yPh3CSmVoBBBAAAEEEPAWIE97mxi/hzxNnpYQML5AGREBBBBAAAEEfAiQp33gGPYWeVoiTWq1Pm231VRYik8UHjDsNDMQAggggAACCISlAHnaDKeVPG1cnrbbavLzsjMzUsVTAqKjx5uhApgDAggggAACCAxfAfK0Gc4deVr3PC1idEJ8nIjRiqJER4/Pz8s2w+lnDggggAACCCAwrAXI02Y4feRpvfK0iNHR0eM9YjSXeZih7pkDAggggAAC4SFAnjbDeSRPa5ynRYzOz8v2iNEVlmIznG/mgAACCCCAAALhJECeNsPZJE9rlqdFklZjdEJ8HBd1mKHEmQMCCCCAAAJhLECeNsPJJU8Hm6fV+wvVJK35RnT0+NC+EuLjQvjKzEgN7Ss/LzuErxOFB0L7qrAUh/Zlt9WE8GWGf00zBwQQQMCHAHnaB45hb5Gng83T//zP/48aoF966SV1mw0EEEAgGIFQfYsOyZfnUH1nNv6rcqi+HofkW3FIvgkblp/MMxB52gzngjwdbJ7+v//3/6j/yfzf//ufo6PHa/VfI83/a6rOkw0EhqmAP38o/P9o/vRmtjZD/etFv3kONaLYr9+4Pnr2/xTTEgFjBHyUq35vqfdlkafJ0xJZ1k8su61G/OHxs71Us6F+n4vdVnOi8IB64Ud09PjMjNSR8BwPPdYeNF9E0WM1SNs1LT1W5nxnoADe1fw/Ccb8R45RhqOA5sXmT4cv/EPhTydSbV44omgg1ecLGxs8qJ/DaftJR8Kg4jOSp6UinN6NWZ+WyPRD5Wn1JI3YYK0KsIFAqARG7Lc7H98Ytf3i509venw59N2nVHjSqvELY6vmDYbj9yLmrKuA+5od69Oh+u+O+7hhm6ftthr3z6nJ9gvztDqKx7M+xIq1+lVSbcYGAggggAACJhTQ4wvqC/vU/O8nX9ihj6+j+r3lz1fTF7ZxrxnytLtGqLbJ01quT3ucxaF+pYtHM35EAAEEEEAAAQQCEyBPB+am7VHkaR3ztDhV4iIQ7983rscKurbFQW8IIIAAAgggYHIB8rQZThB5Wvc8rZ5mu60mMyNVDdbR0ePVt9hAAAEEEEAAAQQCECBPB4Cm+SHkaePytHryxIq1+80E6ltsIIAAAggggAAC/guQp/230q8leToEeVq/00nPCCCAAAIIIDCiBMjTZjjd5GnytISAGUqWOSCAAAIIIICAKkCeVilCuEGelkiT/j8vL4RnlKERQAABBBBAYOQIkKfNcK7J0+RpCQEzlCxzQAABBBBAAAFVgDytUoRwgzwtkSZZnw5hpTI0AggggAACCHgLkKe9TYzfQ54mT0sIGF+gjIgAAggggAACPgTI0z5wDHuLPC2RJlmfNqwuGQgBBBBAAAEE/BEgT/ujpHebcMvTAy6n8o9/9Pjtg+RpvcuR/hFAAAEEEEBASoA8LcWlU2PyNOvTEgI6VSHdIoAAAggggEBgAuTpwNy0PYo8LZEmWZ/WtvjoDQEEEEAAAQSCFCBPBwmoyeHkafK0hIAmNUcnCCCAAAIIIKCVAHlaK8lg+iFPS6RJ1qeDKTWORQABBBBAAAHNBcjTmpMG0CF5mjwtIRBAhXEIAggggAACCOgnQJ7Wz9b/nsnTEmmS9Wn/C4uWCCCAAAIIIGCAAHnaAOQXDkGeJk9LCLywnmiAAAIIIIAAAkYKkKeN1B5qLPK0RJpkfXqoMmI/AggggAACCIREgDwdEnaPQcnT5GkJAY/q4UcEEEAAAQQQCK0AeTq0/mJ08rREmmR92gwlyxwQQAABBBBAQBUgT6sUIdwgT5OnJQRCWKkMjQACCCCAAALeAuRpbxPj95CnJdIk69PGFygjIoAAAggggIAPAfK0DxzD3iJPk6clBAyrSwZCAAEEEEAAAX8EyNP+KOndhjwtkSZZn9a7HOkfAQQQQAABBKQEyNNSXDo1Jk+TpyUEdKpCukUAAQQQQACBwATI04G5aXsUeVoiTbI+rW3x0RsCCCCAAAIIBClAng4SUJPDydPkaQkBTWqOThBAAAEEEEBAKwHytFaSwfRDnpZIk6xPB1NqHIsAAggggAACmguQpzUnDaBD8jR5WkIggArjEAQQQAABBBDQT4A8rZ+t/z2TpyXSJOvT/hcWLRFAAAEEEEDAAAHytAHILxyCPE2elhB4YT3RAAEEEEAAAQSMFCBPG6k91FjkaYk0yfr0UGXEfgQQQAABBBAIiQB5OiTsHoOSp8nTEgIe1cOPCCCAAAIIIBBaAfJ0aP3F6ORpiTTJ+rQZSpY5IIAAAggggIAqQJ5WKUK4QZ4mT0sIhLBSGRoBBBBAAAEEvAXI094mxu8hT0ukSdanjS9QRkQAAQQQQAABHwLkaR84hr1FniZPSwgYVpcMhAACCCCAAAL+CJCn/VHSuw15WiJNsj6tdznSPwIIIIAAAghICZCnpbh0akyeJk9LCOhUhXSLAAIIIIAAAoEJkKcDc9P2qLDN0xWWYm2lBlxO1qc1J6VDBBBAAAEEEAhGgDwdjJ5Wx5KnJVZnydNalR39IIAAAggggIAmAuRpTRiD7IQ8TZ6WEAiy2jgcAQQQQAABBLQVIE9r6xlYb+RpiTTJ+nRgRcZRCCCAAAIIIKCTAHlaJ1ipbsnT5GkJAanaojECCCCAAAII6C1AntZb2J/+ydMSaZL1aX9KijYIIIAAAgggYJgAedowah8DkafJ0xICPiqJtxBAAAEEEEDAeAHytPHm3iOSpyXSJOvT3gXEHgQQQAABBBAIoQB5OoT46tDkafK0hIBaN2wggAACCCCAgBkEyNNmOAvkaYk0yfq0GUqWOSCAAAIIIICAKkCeVilCuEGeJk9LCISwUhkaAQQQQAABBLwFyNPeJsbvIU9LpEnWp40vUEZEAAEEEEAAAR8C5GkfOIa9RZ4mT0sIGFaXDIQAAggggAAC/giQp/1R0rsNeVoiTbI+rXc50j8CCCCAAAIISAmQp6W4dGpMniZPSwjoVIV0iwACCCCAAAKBCZCnA3PT9ijytESaZH1a2+KjNwQQQAABBBAIUoA8HSSgJoeTp8nTEgKa1BydIIAAAggggIBWAuRprSSD6Yc8LZEmWZ8OptQ4FgEEEEAAAQQ0FyBPa04aQIfkafK0hEAAFcYhCCCAAAIIIKCfAHlaP1v/ew7DPB0dPV5RlApLsf8KfrZkfdpPKJohgAACCCCAgDEC5GljnH2PQp6WWJ0lT/suJt5FAAEEEEAAAYMFyNMGgw86HHmaPC0hMGgNsRMBBMJG4PmzlrD5LHwQBEaIAHnaDCeaPC2RJlmfNkPJMgcETCvQ3+e4+2NFc1Otq7dVdpK9PS3V1y+3ttTJHujevr/PcftW+YP7Ve47/dzu73OcOX34ncwVt2+VV1iKG6xVAXwKP8eiGQIIaChAntYQM+CuyNPkaQmBgOuMAxEYCQJ9zx9v3/axoiiTJk3YuX2j3VbT3+fw84Pfv/dDzNTJBTs3+9l+0GZtzvp5iXOy1qQ/+6150AbuO3t7Wr6+9IUavhusVdNipihu/2zZ/GFXp839ELYRQMCEAuRpM5wU8rREmmR92gwlyxwQCJXAvbvfV1WW3KwutdZXtrdZu7vs3jPp7WmxlJ9fmrIwImJURMSodzJXWOsr/UnVF74qVBSl6NQh9z57e1p+enLvZnVphaW48Oj+3QW5uwtyd+TnbMvLtjVWu7cU2zdvfDt27Cs78nO83/LYI1ajIyJGVVWWiLeOHN6jKMr2bR93d9ldva2Xvz4dFTWu8Oh+jwP5EQEEzCZAnjbDGSFPk6clBMxQsswBgVAJFOzc7LZ6+z82E/8w+5H9ljqx5qbazIzU4vPH0tOWjxnz8sacD37+6b76rvdG5y+N6WnLRZ7u7Wm5WV26Iz8nIT7uf4yhKNNfnZo0P0G8jv1tn0c/vT0tWzZ/qCiKP3n62ncXoqLGKYoi8vTTjgfL3kw+fuzTzl8aRbf9fY6jR/amvb1M3eMxHD8igIBJBMjTZjgR5GmJNMn6tBlKljkgECqB589a2tus4lV3+2qFpbi87FxmRqqiKO++85Z77mywVv099TZYq/r7HLdqyxcnz0uan6BeWeE9/7NFn48d+0pExKiy0rOiw6iocWs/ePfy16fLSs8uTVm4c/vGFy5yV1WWTJw4YcyYl784cdBjiN6elo72ht6e/7zX8LdfmzZtXLt82eKxY18Rebq25kpCfFzTw5vuB1Zfv/zGrJnNTbXuO9lGAAGzCZCnzXBGyNPkaQkBM5Qsc0DAJAL9fY7Sy2eiosZt2rjWPUwPuJxqnhZT7e6y5+dlpyxZ8MRx13vyD+5XvR4742+ff7IgaW7ltUvnzx09fuxT9WKS7i776lVpHteBeHfS5qwXsfu9lX8WjRsbrr82I8ZjhXtB0tzGhuvicHHBtMjT+/fmr16Vpg4qGty/98O8xDkN1kDubvSeIXsQQEAnAfK0TrBS3ZKnJdIk69NStUVjBMJYoLvLvu+TbRMnTjhz+rC67qt+3urrl1+bEeOeRLs6bVlr0j94/x2PzCr2f7RhTWtL3YKkuerVzGpX/uTp3p6W3QW5y5ctbm2pU8N3d5f9RtU3FZZi8TpyeM9bK1JWvvsnNdOreVoMsX9vvjqo2Pi+4mJCfFyQjxzx6JMfEUBAcwHytOakAXRIniZPSwgEUGEcgkD4CTyy33prRcobs2beqi0f9NNVVZbETJ18/94P7u/eu3stZupk98QscrBYt25vswaWp8Wdha/HzrDWVw4Vvru77Nb6yqrKkieOu2qgF08UqaosEUcdObzHfbbiaux1a1f2dD9y3882AgiYTYA8bYYzQp6WSJOsT5uhZJkDAiEUEA++mDRpQtaadB+3GN6ps0ycOKG87Jz7VFuab8+ZHet+5ca17y5MnvxvZaVn29uslvLz02KmvJO5orbmivtRg4Zd9wbW+srYmdNPFB5ob7Peqi1fkDR3acrC8rJzDx/cWPnun5LmJ0yaNMH9qo83Zs0Ut05WVZZMi5nSYK169ltz1pr0zZvW9T1/rPZ8p84SM3Wypfy8uocNBBAwpwB52gznhTxNnpYQMEPJMgcEQiXQ5qzfmPPB76ZMGvQaD/dZOR7fmZc4R32YdH+fw9ZY/daKlNiZ09W7EkUOVpPumDEvR0SM2rL5Q49LsUWeHuqRHU8cd1OWLPDoJDMj1fH4zrkzRxRFiYoal5G+vPDofnHVR+W1S23OejFVNU8PuJyFR/dPi5lira8Ub4lus9ak8/xp99PKNgLmFCBPm+G8kKcl0iTr02YoWeaAgPEC3V32k8cPTpo04a0VKXZbjZhAb0+L3VZzsfj4x9lZSfMTDn66U72UwtXbevqLzzbmfHCx+HjulvXiyXeLk+fV3b4qjr1399obs2YuX7a48Oh+cZ3Gb782rXz3T94XMYs87bF4LDp5/Oj28mWLFyTN/euBv9TWXPn16cP+Pse2vOwN61c/f9bS0/3I1ljt43ccuufppoc3Y2dOT16UaK2v/L7iongknxr9jQdnRAQQ8F+APO2/lX4tydPkaQkB/QqRnhEws4C4de/vj7Q7fuzTCkvx5a9Pb9q4Vjy/OSJi1JzZsUnzE2JnTq+qLMn5+H11tVhRlIiIUYl/mL0jP+fujxVqtH1wvyp25nSP3z7Y0d6QvCjR+1cbiosxvPeLB3qkvb1MXW8ecDlF4+RFiR3tDS/0LD5/TFzvMeBy/uNZJUXqlSHvZK5wtv74wh5ogAACZhAgT5vhLJCnJdIk69NmKFnmgIDxAr09LUcO71HjZmTk6AVJc/fs2lpbc+X5s/98qLOYVW3NlcKj+8Wdf78+fTjoVG/Vln996Qs1Xos2/X2O8+eOfnawwP0iZvGWrbFafSiH2qGtsfrM6cPeNwtWXruUu2W9ulKutvfe6Oq01dZcce+hzVl//Yevna0/vvBZ1969sQcBBEIlQJ4Olbz7uORp8rSEgHvpsI3ASBPo73M87XjgT1QdaTJ8XgQQCKEAeTqE+OrQ5GmJNMn6tFo3bCCAAAIIIICAGQTI02Y4C+Rp8rSEgBlKljkggAACCCCAgCpAnlYpQrhBnpZIk6xPh7BSGRoBBBBAAAEEvAXI094mxu8hT5OnJQSML1BGRAABBBBAAAEfAuRpHziGvUWelkiTrE8bVpcMhAACCCCAAAL+CJCn/VHSuw15mjwtIaB3OdI/AggggAACCEgJkKeluHRqTJ6WSJOsT+tUhXSLAAIIIIAAAoEJkKcDc9P2KPI0eVpCQNviozcEEEAAAQRGgkBmRmp09PjMjNQKS7Hmn5c8rTlpAB2SpyXSJOvTAVQYhyCAAAIIIDDCBSosxQnxcco//tE8WJOnzVBd5GnytISAGUqWOSCAAAIIIDAcBey2mhOFB9yDdX5edvAr1uRpMxQDeVoiTbI+bYaSZQ4IIIAAAggMawHvYH2i8EDAn4g8HTCdhgeSp8nTEgIaVh5dIYAAAgggMMIF7Laa/LzsIK8DIU+boYrI0xJp0p/16ejo8eIPhmH/Gx093oSvhPg4E74yM1JN+MrPyzbb60ThAV4IyApUWIp5IYBAAAJniz7P+fj912NniOQwfvzY9R+usttqxOuFYZE8/UIiAxqQpzXO0ycKDxiWpBkIAQQQQAABBMJbIDp6vN1W4yMRkqd94Bj2Fnla4zw94HLabTUBfD3lEAQQ0FVAdrXVmPZm+6sJE/4Fjgn/psuEfyUY3oFyBH66l156Sf3USfMTfIdC8rRvH2PeJU9rn6eNOXOMggACCCCAgDkF1GsVTLWh6zf2ADr3/tKe8/H7S1MWqkn6X/7l/539RuwLTzF5+oVEBjQgT5OnJQQMqEiGQAABBBBAYEQJ2G01mRmpaoyOjh6fn5ft+xoPdx/ytLtGqLbJ0xJp0p/7EUN1IhkXAQQQQAABBIaRgPvDPRRFkY3R6iclT6sUIdwgT5OnJQRCWKkMjQACCCCAQBgIiBit4W91IU+boSrI0xJpkvVpM5Qsc0AAAQQQQGA4CngsSCfEx+XnZQf/QcjTwRsG3wN5mjwtIRB8wdEDAggggAACI02gwlKs/noKcV2HhgLkaQ0xA+6KPC2RJlmfDrjOOBABBBBAAIERK5AQHxfw5dEvRCNPv5DIgAbkafK0hIABFckQCCCAAAIIIOC/AHnafyv9WpKnJdIk69P6FSI9I4AAAggggEAAAuTpANA0P4Q8TZ6WENC8/ugQAQQQQAABBIIRIE8Ho6fVseRpiTTJ+rRWZUc/CCCAAAIIIKCJAHlaE8YgOyFPk6clBIKsNg5HAAEEEEAAAW0FyNPaegbWG3laIk2yPh1YkXEUAggggAACCOgkQJ7WCVaqW/I0eVpCQKq2aIwAAggggAACeguQp/UW9qd/8rREmmR92p+Sog0CCCCAAAIIGCZAnjaM2sdA5GnytISAj0riLQQQQAABBBAwXoA8bby594jkaYk0yfq0dwGxBwEEEEAAAQRCKECeDiG+OnQY5umE+DhFUSosxeqH1GqDPK2VJP0ggAACCCCAgCYC5GlNGIPshDzN+rSEQJDVxuEIIIAAAgggoK0AeVpbz8B6I09LpEnWpwMrMo5CAAEEEEAAAZ0EyNM6wUp1S54mT0sISNUWjRFAAAEEEEBAbwHytN7C/vRPnpZIk6xP+1NStEEAAQQQQAABwwTI04ZR+xiIPE2elhDwUUm8hQACCCCAAALGC5CnjTf3HpE8LZEmWZ/2LiD2IIAAAggggEAIBcjTIcRXhyZPk6clBNS6YQMBBBBAAAEEzCBAnjbDWSBPS6RJ1qfNULLMAQEEEEAAAQRUAfK0ShHCDfI0eVpCIISVytAIIIAAAggg4C1AnvY2MX4PeVoiTbI+bXyBMiICCCCAAAII+BAgT/vAMewt8jR5WkLAsLpkIAQQQAABBBDwR4A87Y+S3m3I0xJpkvVpvcuR/hFAAAEEEEBASoA8LcWlU2PyNHlaQkCnKqRbBBBAAAEEEAhMgDwdmJu2R5GnJdIk69PaFh+9IYAAAggggECQAuTpIAE1OZw8TZ6WENCk5ugEAQQQQAABBLQSIE9rJRlMP+RpiTTJ+nQwpcaxCCCAAAIIIKC5AHlac9IAOiRPk6clBAKoMA5BAAEzCPT2tPT3OcwwE+aAAALaCpCntfUMrDfytESaZH06sCLjKAQQCFLg+bOW9jartb6y7vbV3p4W2d6ufXcheVFibc2VCktxYD3Ijkh7BBAwTIA8bRi1j4HI0+RpCQEflcRbCCAwqEBvT0vnL41DrQ0/7Xhws7q0uanW1dvqcfjzZy3W+sozpw+/tSIlImKU8l//7N+b79HS48fenpavL33x4H6V2N/mrF/yx6T/Ovo//j/t7WVtznqPo/gRAQSGqQB52gwnjjwtkSZZnzZDyTIHBEIl8PNP98tKz96ps9ysLm1z1j/teDBoSnb1trp6W9vbrGeLPl+aslBE4diZ09WAO+Byunpbz5w+HBk5Wo25M3//6tUrX4pU3dVp+2jDGnFgzNTJO/JzKizFTxx329usLc237bYaHwL9fY4zpw9HRIyqqiwRzcrLzimKsvLdP3W0N/T3OW5Wl8bOnL41d0Pf88c++uEtBBAYLgLkaTOcKfI0eVpCwAwlyxwQCJVA9fXL7uvEahRWFCUycvS33xQNuJyNDddfmxEj3pozO/bTfdst5ect5effyVyhBlw18kZEjDr0111PHHebm2o35nwwZszLZ04f7u9ztDnrl6YsXJA0t+72Ve91a98f/9p3F6KiximKIoZ7/qxlw/rV27d93N5mVQ8sKz07N2FWa0uduocNBBAYvgLkaTOcO/K0RJpkfdoMJcscEAiVgKu3taO9ob3N2t5mbXp4s8JSXGEp3l2QO2bMy9Niptypswy4nI7Hd+Ylzln2ZrKtsXrQ1esBl9NaXzktZsryZYtvVH2jxmVXb+vpLz6bOHHCte8uDLicO/JzVq9K6+6y+/6wz5+1dLQ3qJ389mvTpo1rly9bPHbsKyJPNzfVzk2YdfPGt+79NDZcf2PWzNqaK+472UYAgWEqQJ42w4kjT5OnJQTMULLMAQHzCDQ31SYvSkyan3D/3g9iVt1d9tWr0o4c3qNOUk3hvz59OOBy9j1/vDV3Q8qSBU8cd9U2YqOr05aZkZq1Jv3Zb80+8rT3MnlExKiM9OXqJdEN1qppMVNEni65eHJB0tyfntxzH6vNWT8vcY66Xu7+FtsIIDDsBMjTZjhl5GmJNMn6tBlKljkgYAaB/j6Hpfz8tJgp2R9l/fzTfXVKIk//ZcemymuXLn99eu0H74qrL8Q1IRWW4uam2llxvy86dUg9RN149ltz1pr0Hfk5Yn16acrCqsqS2porRw7veWtFyqRJEyIjR9+88e3TjgeV1y6J1XFL+flP921fmrJw08a1XZ020ZV7nt6Rn7Nh/ernz/7HI0Hu3/thzuxYsaCujs4GAggMUwHytBlOHHmaPC0hYIaSZQ4IhFygu8u+75NtY8e+cvL4QY+n13W0NyQvShTXT0dFjVv7wbsNXDVzAAAgAElEQVQVluKfntx79ltzc1Pt044H7mHX44O0NN+eMzu25OJJkafV67Onvzo1d8v6Cktxm7NevbRDHPv/t3c/TlKVB6L3/5J0Vepm65W6vqaS5coyN7VryYo/7or4gzEoKkZcWdwbFbayUZK4GhZlFUe9Jm5UvDfGUiS7/lp2YlQiwdnZIIiDYiQj4DiCMCGIGoIIA/Xue8+t8/bbPdNzntPnFz2f1FSqp/uc5znz6Qf89kPPzO8/eW/bW69G3x8ZR/O7v3lt5llnRtvP9/UsX3HnrfXfenj82L4nHv/RtQuuPHhgR8MF+JQAgZNRQE9X4VnT0wE1aX+6CkvWNRAoV2Bo15ZrF1x50YXnv7l1Q/OVHNg/eMW8S7/7nb/5+c/WjPnu5+i9Fv+05tGGc48e2fPDB+665hvzordt3Nez/NLuC3/61KMje3/d8D7sN7a88tfXL7hs7iXxzndU3tcvuubTj3edGB3ZtPHFs2fO2DH4//68vAfuX3HjDQuj+6MZP9z91qXdF65+4uGGC/ApAQInqYCersITp6f1dIBAFZasayBQlsCRw7ufffqxP59xxh3Lv1v/Ho/669kxuGne5d1Ry0b3R7+KJXrz9InRkegHbsw6/9x3ft0fn7h/ZPuy7y+dPv306JsRW38/4gP3r6jVamec8bWlt9z07NOPRW/82LTxxTia63u6b8Pa6dNP/7dX/zWa69CnQ0tvuWnMd2/HF+MGAQInl4CersLzpacDatL+dBWWrGsgULzA8WP7Xt/08tXzLzt75owN65+P3nRx/Ni+A/sH+/t6H/zB3dcuuPKWm2/aPfzm29v6zjzzTy+5eNal3RfW/3jpWq12wazz3tv5evTzPWadf+5pp5167z1//6//8uTSWxZPn356w4b3fT3LG/aV46/60KdDH7y/tWHTOn60YX/64IEd1y64ctb5525+7aW3t/X99fULzp454/VNL9cf7zYBAie1gJ6uwtOnp/V0gEAVlqxrIFC8QPRdhrVabdn3l/b39UbfBXjJxbOiN1qce85Z8y7vvuTiWT96cOVv3vn3s2fOmDLllNNOO/XGGxb++H/+oG/D2sHtGw/sH4y3qE+Mjuwf2X73XbefccbXpkw55Yp5l65+4uH4uwmjr+7hH/UsvG7+Jwd3pvhie9c+Gb/f48ToyJtbN1x04fnRpV49/7L4R5GkGNkpBAhUUEBPV+FJ0dMBNWl/ugpL1jUQKEVgy+Z1c79+cfw9ghfMOu/W731r/SvPNX9X3/Fj+z79eFfDNw6GXvPRI3s++8MHoWdFxx/6dGjrwC+PHN4dn/7px7s2bXxxzN9qHh/jBgECJ6mAnq7CE6en9XSAQBWWrGsgUKLA4UPD4/2a8RKvytQECExmAT1dhWdfTwfUpP3pKixZ10CAAAECBAjEAno6pijxhp7W0wECJa5UUxMgQIAAAQLNAnq62aT4e/R0QE3any5+gZqRAAECBAh0mEDPymVrVq/K6ovS01lJtjOOntbTAQLtLDXnEiBAgAABAsNDA9F3Nnd1TeueM7tn5bL+vt52WPR0O3pZnaunA2rS/nRWy844BAgQIEBg0goMDw10z5kd/7ygWq3W1TUtdVjr6SosJD2tpwMEqrBkXQMBAgQIEOgAgeGhgSWLF9VXdRzWw0MDyb9APZ3cKr8j9XRATdqfzm8hGpkAAQIECExCgeGhgTWrVzWEdVfXtCWLFyV8H4iersKy0dN6OkCgCkvWNRAgQIAAgY4UGB4a6Fm5rP6tINH7QFp/sXq6tU8xj+rpgJoM2p/u6prW8I847X/a1TWt4I/uObOL/FiyeFGRHz0rlxX5sWb1qiI/+vt6C/4YHhoo7KOYvx/NQoAAgVIEGjatW29X6+lSnqOGSfV0Xj0d/fNNff6239NGIECgFIH6P8jF3C7ydWw814SvZuMj3ehsgWIWuVmSCEybNvXLX/6/v/Sl/xT91Xfaaac2ZNyJ0RE93WxS/D16Oq+ePjE60rNyWSn/7TcpAQLVFEjyn8+T5ZhqCrsqAp0tcMop/1dzKerpZpPi79HTOfb08NBAwf/gXsB0hf2DvolSCBT/N4gZCRQmkOJPRPunFPCXasMURb4rLJ6ryHe+RXNN+I8hmR9Qyj8ppHt5PG3a1FNP/c9/9Edfil8bfPGLXzz11P8cjdb8J05PN5sUf4+ezrGni386zUiAAAECBAicpAI9K5fV/6CP6JsRJ/zZeXq6Ck+3ntbTAQJVWLKugQABAgQIdJJA9GM94t3o+KdQJ/wa9XRCqFwP09MBNRn08z1yfdoMToAAAQIECJzUAlFG1/80sIQb0g1ftZ5uACnlUz2tpwMESlmjJiVAgAABAp0k0PybEZcsXrRm9ap0X6OeTueW7Vkd2NPRe48S/lahIE3700FcDiZAgAABAgQaBIaHBuK3dnTPmd2zclnDAaGf6ulQsTyO19MBu7N6Oo8laEwCBAgQIDB5BKLf1ZLhrp+ersLi0dN6OkCgCkvWNRAgQIAAAQKxgJ6OKUq8oacDatL+dIkr1dQECBAgQIBAs4CebjYp/h49racDBIpfoGYkQIAAAQIEWgjo6RY4hT2kpwNq0v50YevSRAQIECBAgEASAT2dRCnvY/S0ng4QyHs5Gp8AAQIECBAIEtDTQVw5HaynA2rS/nROq9CwBAgQIECAQDoBPZ3OLduz9LSeDhDIdvEZjQABAgQIEGhTQE+3CZjJ6Xo6oCbtT2ey5gxCgAABAgQIZCWgp7OSbGccPa2nAwTaWWrOJUCAAAECBDIX0NOZk6YYUE8H1KT96RQrzCkECBAgQIBAfgJ6Oj/b5CPraT0dIJB8YTmSAAECBAgQKEBATxeAPOEUejqgJu1PT7ieHECAAAECBAgUKaCni9Qeby49racDBMZbRu4nQIAAAQIEShHQ06WwN0yqpwNq0v50w+rxKQECBAgQIFCugJ4u1z+aXU/r6QCBKixZ10CAAAECBAjEAno6pijxhp4OqEn70yWuVFMTIECAAAECzQJ6utmk+Hv0tJ4OECh+gZqRAAECBAgQaCGgp1vgFPaQng6oSfvTha1LExEgQIAAAQJJBPR0EqW8j9HTejpAIO/laHwCBAgQIEAgSEBPB3HldLCeDqhJ+9M5rULDEiBAgAABAukE9HQ6t2zP0tN6OkAg28VnNAIECBAgQKBNAT3dJmAmp+vpgJq0P53JmjMIAQIECBAgkJWAns5Ksp1x9LSeDhBoZ6k5lwABAgQIEMhcQE9nTppiQD0dUJP2p1OsMKcQIECAAAEC+Qno6fxsk4+sp/V0gEDyheVIAgQIECBAoAABPV0A8oRT6OmAmrQ/PeF6cgABAgQIECBQpICeLlJ7vLn0tJ4OEBhvGbmfAAECBAgQKEVAT5fC3jCpng6oSfvTDavHpwQIECBAgEC5Anq6XP9odj2tpwMEqrBkXQMBAgQIECAQC+jpmKLEG3o6oCbtT5e4Uk1NgAABAgQINAvo6WaT4u/R03o6QKD4BWpGAgQIECBAoIWAnm6BU9hDejqgJu1PF7YuTUSAAAECBAgkEdDTSZTyPkZP6+kAgbyXo/EJECBAgACBIAE9HcSV08F6OqAm7U/ntAoNS4AAAQIECKQT0NPp3LI9S0/r6QCBbBef0QgQIECAAIE2BfR0m4CZnK6nA2rS/nQma84gBAgQIECAQFYCejoryXbG0dN6OkCgnaXmXAIECBAgQCBzAT2dOWmKAfV0QE3an06xwpxCgAABAgQI5Cegp/OzTT6yntbTAQLJF5YjCRAgQIAAgQIE9HQByBNOoacDatL+9ITryQEECBAgQIBAkQJ6ukjt8ebS03o6QGC8ZeR+AgQIECBAoBQBPV0Ke8OkejqgJu1PN6wenxIg0CBw5PDuwe0bjxze3XB/6k+PH9v31psbPjm4M/UITiRAoLMF9HQVnl89racDBKqwZF0DgSoLPP/s47Vabfr005fesnj1Ew9/8P7W0aN7x7zgzz/bE318cnDn8WP7xjzmxOjIgf2DV8y79Jl//vF4B6S4f/fwm71rn/z8sz0pznUKAQJVE9DTVXhG9HRATdqfrsKSdQ0EShH46Hfvrn/lube39b2x5ZX9I9vHi+CXfv5P3XNm3/UPt93Xs3zu1y+u1WqXXDyrd+2T0Y718WP7fvavq+d+/eJ5l3efe85Ztf/9vylTTunbsDb+oo4c3v3xRzviT3ft2Dzr/HPrDxg9uvfggR3b3nq1v6/32acf++EDd/3wgbv+x313rrjz1q0Dv4xPHO/Gb/e9s+CaK27+9o2HDw2Pd4z7CRA4iQT0dBWeLD2tpwMEqrBkXQOBUgS2bF43ZcopUQE3/P9pp536i5efOTE6su2tV//sz7723DM/ia9w/8j2h/7xnunTT7/xhoX7R7YfP7bvJz/+4dyvX3zJxbOmTDnltr/79rqXnt608cVPP94Vn/L8s493z5n9wftbo3ve3tZ39fzL9nzw1uD2jY88dO8V8y5tuIwzzvjavMu7o4/7epa33nU+9OnQ0ltuqtVqejoGd4PAyS6gp6vwDOrpgJq0P12FJesaCJQiEO0KH9g/eGD/4PvvvdHf19vf1/vDB+76yle+fPbMGW9v6zsxOvLB+1svnP0X9/Usb7jCwe0bz54544H7V8T37xjc1D1ndnRWfGd045/WPDplyilbNq+LPn3+2cev+8v5y//+O7Va7bTTTr3xhoUv9D7V39f7t9/65oRNfPzYvk8O7qzfh9782kvXLriye87sCc9tuCqfEiBQWQE9XYWnRk/r6QCBKixZ10CgIgIfvL91/lVz513e/e5vXosuKXqv80+fenTt80/83a1/u2vH5gP7B3+7750f/88ffOUrX67ft9468Msr5l26d8+2hq/l2Ocfrrjz1lqttmH98ydGR44f23fPymX333vHq7/8l0ceuvej370bH39fz/LmcD8xOvLZHz6IdqDrN9HPOONrvWufrD9XT8cabhA42QX0dBWeQT0dUJP2p6uwZF0DgdIFjh/b17dh7dkzZyz7/tL6xo2/d/CB+1c05Oy//suT9d+Y+Kv+FxZeN7/5p3bs+/Dty+ZeUqvVom9A/OTgzoXXzY/auuGrHq+njx/b986v+6Pt8/6+3hd6n1p6y03zr5q78d9/Ho/wH28L0dOxhhsETnYBPV2FZ1BP6+kAgSosWddAoFyBw4eGH/rHe6ZO/epPn3r06JH/34/I2LVj8387b+Yz//zjTz/edecd36vVaov+6hs7Bl9rfk/zM//849tvu7n5/r4Na/98xhnnnnPWijtvPfb5h2+8/otLuy+M30td/4WP19P1xxw9smfPB29t/Pefv//eG/E3UEZ73nq6HsptAie1gJ6uwtOnpwNq0v50FZasayBQosDQri3XLrjyogvPf3PrhubL2DG46eyZMx5/7METoyNHj+x59unHpk8//R9W/N2hT4caDr6vZ/nDP+ppuPPY5x/efdftD/3jPY8/9uAV8y4d2fvrf1jxd7d+71tj/jTr+3qWR83dMMihT4d+9ODKeZd3XzDrvPo98lqttu6lp0+Mjhw+NHzzt28c870iDUP5lACBk0JAT1fhadLTejpAoApL1jUQKEXgyOHdzz792J/POOOO5d+tf49H/cU0fz/i65tePnvmjOiHe8RHfv7Znttvu7n5R0rv3bPt0u4LN2188e1tfX/2Z1+7Yt6l06efXv+T8uIRToyOjPeejWiPfMqUU66Yd+mDP7h7w/rno/d+7BjcFL3hRE/XM7pNoAME9HQVnkQ9HVCT9qersGRdA4GCBY4f2/f6ppevnn/Z2TNnbFj/fFSlx4/tO7B/sL+v98Ef3H3tgitvufmm3cNvRu+fbngrRfRti9cvumb/yPZoe/i1X/38kotn3fDN6/5+2dJ5l3ff/O0bo29M3Drwy/lXzd0/sv3I4d3fv/2WWq127YIrDx74/34Wdf0Xfl/P8htvWFj/g/aiR48f2/fB+1ubd8Tjc/V0TOEGgc4Q0NNVeB71tJ4OEKjCknUNBAoWiAK0Vqst+/7S/r7evg1rH3no3ksunhW9m+Lcc86ad3n3JRfP+tGDK6MjVz18X8PvO9z57qbrF12zY3BTtIEdnThlyimXXDzr75ctXffS09GPtHvmn398xbxLD+wfPDE6smNw019fv6D+mwgbvuoH7l8x/6q549V2w8H1nx48sGPBNVd4v0e9idsETmoBPV2Fp09PB9Sk/ekqLFnXQKB4gS2b10W/7DBK4QtmnXfr9761/pXnQnP26JE9Wwd+Obh9464dm5u3kF/f9PJTTz5y7PMPk3yBv933ztCuLUmObDjm+LF9u3ZsHvN7HBuO9CkBAieFgJ6uwtOkp/V0gEAVlqxrIFCWwOFDw/FPySjrGsxLgACBBgE93QBSyqd6OqAm7U+XskZNSoAAAQIECIwnoKfHkynyfj2tpwMEilya5iJAgAABAgQmFNDTExIVcICeDqhJ+9MFrEhTECBAgAABAskF9HRyq/yO1NO59/Tw0EDPymXdc2Z3dU3L74k0MgECBAgQIDAJBfR0FZ70Duzp7jmza7Vaf19v5r5B+9NxRkc/EKCra1rPymWZX5IBCRAgQIAAgcksoKer8Ozr6Yz3pxsyularKekqLHTXQIAAAQIEOlJAT1fhadXT2fT0eBk9PDRQhafZNRAgQIAAAQIdKaCnq/C06ul2e7q/r3fJ4kXRmzri3WgZXYXF7RoIECBAgEDHC+jpKjzFejplT0cb0jK6CovYNRAgQIAAgUkroKer8NR3bE/nsUMcfT/id5YuiTM6+Y2urmntf3TPmd3mx5LFi9r/6Fm5rJ2PNatXtf/R39fb/sfw0EA7H1X4A+waCBAgQGCSC+jpKiwAPR28P528oR1JoLVA+y+xurqmtfkSq3vO7PZfYi1ZvKidl1jRuZ3xKiuPV/JV+E+FayBAoLICeroKT42eDu7p7yxdcuUVX4866Y//+CtXXvH15X//nWivtP0gSDhC++0y4QiZNFaSQdrPwYQjZBKvrQdpXc8eJZBcoPVKa//RhH9qMjksyd8DWR0z4d9sWR2Q8O/qTA5r/9/iko/Qzj/ZBZ1bhQDqmGvQ01V4KvV0cE+vWb3qxOjI8NDAmtWrop91HX8bYh4/9LoKq8Q1VEog6D9a7Ryc/L/B7RyZSXAkGSSrkGoxTlZROOE4mWRu+1EejZD8RYIjCRQvkNU6TzhOJn82Wwwy5i+y0NNV+G+0nk7Z0/GT1/CT8qKfNi2sYx83CBAgMKFAOy/86s9t56VdfG6Sl2dJjmnx0iv5QxO+uEp4QItEC3ooYVa2Pqz4qu6kGaNNvfo/U3q6XqOs23q63Z6Onzk/8SOmcIMAAQIECOQqUP86qs3b8Uupdm4keYmV5JgJX2s1q+rpZpPi79HTmfV09OQ1vw9kyeJFza8mi3+mzUiAAAECBAh0noCersJzqqcz7un4SY22q7u6pkX/zOS3jscybhAgQIAAAQJZCejprCTbGUdP59XT0bMyPDQQ/QLF6M1k7TxVziVAgAABAgQINAjo6QaQUj7V0/n2dClPqkkJECBAgACBSSKgp6vwROtpPR0gUIUl6xoIECBAgACBWEBPxxQl3tDTATUZ/b5x31xY4no1NQECBAgQIFAvoKfrNcq6raf1dIBAWcvUvAQIECBAgMCYAnp6TJaC79TTATVpf7rg1Wk6AgQIECBAoLWAnm7tU8yjelpPBwgUsyjNQoAAAQIECCQU0NMJoXI9TE8H1KT96VzXosEJECBAgACBUAE9HSqWx/F6Wk8HCOSxBI1JgAABAgQIpBbQ06npMjxRTwfUpP3pDFeeoQgQIECAAIH2BfR0+4btj6Cn9XSAQPsLzggECBAgQIBAhgJ6OkPM1EPp6YCatD+dep05kQABAgQIEMhDQE/noRo6pp7W0wECocvL8QQIECBAgECuAno6V96Eg+vpgJq0P51wVTmMAAECBAgQKEZATxfj3HoWPa2nAwRaLyaPEiBAgAABAgUL6OmCwcecTk8H1KT96THXkDsJECBAgACBsgT0dFny9fPqaT0dIFC/dNwmQIAAAQIEShfQ06U/BSdGR/R0QE3an67CknUNBAgQIECAQCygp2OKEm/oaT0dIFDiSjU1AQIECBAg0Cygp5tNir9HTwfUpP3p4heoGQkQIECAAIEWAnq6BU5hD+lpPR0gUNi6NBEBAgQIECCQREBPJ1HK+xg9HVCT9qfzXo7GJ0CAAAECBIIE9HQQV04H62k9HSCQ0yo0LAECBAgQIJBOQE+nc8v2LD0dUJP2p7NdfEYjQIAAAQIE2hTQ020CZnK6ntbTAQKZrDmDECBAgAABAlkJ6OmsJNsZR08H1KT96XaWmnMJECBAgACBzAX0dOakKQbU03o6QCDFCnMKAQIECBAgkJ+Ans7PNvnIejqgJu1PJ19YjiRAgAABAgQKENDTBSBPOIWe1tMBAhOuJwcQIECAAAECRQro6SK1x5tLTwfUpP3p8ZaR+wkQIECAAIFSBPR0KewNk+ppPR0g0LB6fEqAAAECBAiUK6Cny/WPZtfTATVpf7oKS9Y1ECBAgAABArGAno4pSryhp/V0gECJK9XUBAgQIECAQLOAnm42Kf4ePR1Qk/ani1+gZiRAgAABAgRaCOjpFjiFPaSn9XSAQGHr0kQECBAgQIBAEgE9nUQp72P0dEBN2p/OezkanwABAgQIEAgS0NNBXDkd3IE93dU1rVarDQ8NZE6mpzMnNSABAgQIECDQjoCebkcvq3P1tP3pAIGslp1xCBAgQIAAgUwE9HQmjG0OoqcDatL+dJurzekECBAgQIBAtgJ6OlvPdKN1bE+n42h9lp5u7eNRAgQIECBAoGABPV0w+JjT6Wn70wECY64hdxIgQIAAAQJlCejpsuTr59XTATVpf7p+6bhNgAABAgQIlC6gp0t/Ck6MjuhpPR0gUIUl6xoIECBAgACBWEBPxxQl3tDTATVpf7rElWpqAgQIECBAoFlATzebFH+PntbTAQLFL1AzEiBAgAABAi0E9HQLnMIe0tMBNWl/urB1aSICBAgQIEAgiYCeTqKU9zF6Wk8HCOS9HI1PgAABAgQIBAno6SCunA7W0wE1aX86p1VoWAIECBAgQCCdgJ5O55btWXpaTwcIZLv4jEaAAAECBAi0KaCn2wTM5HQ9HVCT9qczWXMGIUCAAAECBLIS0NNZSbYzjp7W0wEC7Sw15xIgQIAAAQKZC+jpzElTDKinA2rS/nSKFeYUAgQIECBAID8BPZ2fbfKR9bSeDhBIvrAcSYAAAQIECBQgoKcLQJ5wCj0dUJP2pydcTw4gQIAAAQIEihTQ00VqjzeXntbTAQLjLSP3EyBAgAABAqUI6OlS2Bsm1dMBNWl/umH1+JQAAQIECBAoV0BPl+sfza6n9XSAQBWWrGsgQIAAAQIEYgE9HVOUeENPB9Sk/ekSV6qpCRAgQIAAgWYBPd1sUvw9elpPBwgUv0DNSIAAAQIECLQQ0NMtcAp7SE8H1KT96cLWpYkIECBAgACBJAJ6OolS3sfoaT0dIJD3cjQ+AQIECBAgECSgp4O4cjpYTwfUpP3pnFahYQkQIECAAIF0Ano6nVu2Z+lpPR0gkO3iMxoBAgQIECDQpoCebhMwk9P1dEBN2p/OZM0ZhAABAgQIEMhKQE9nJdnOOHpaTwcItLPUnEuAAAECBAhkLqCnMydNMaCeDqhJ+9MpVphTCBAgQIAAgfwE9HR+tslH1tN6OkAg+cJyJAECBAgQIFCAgJ4uAHnCKfR0QE3an55wPTmAAAECBAgQKFJATxepPd5celpPBwiMt4zcT4AAAQIECJQioKdLYW+YVE8H1KT96YbV41MCBAgQIECgXAE9Xa5/NLue1tMBAlVYsq6BAAECBAgQiAX0dExR4g09HVCT9qdLXKmmJkCAAAECBJoF9HSzSfH36Gk9HSBQ/AI1IwECBAgQINBCQE+3wCnsIT0dUJP2pwtblyYicJIKHD40fGD/4La3Xt0xuGn06N7Qr2L38Js7390UepbjCRCYzAJ6ugrPvp7W0wECVViyroFA1QQOHxre9tarjz/24NXzL6vV/e/FF34aXero0b1/+P37o0f3fnJw59Eje1pc/309y2/+9o2HDw23OKbhoc8/2zO4fWN/X+/AG+uPHN7d8KhPCRDoeAE9XYWnWE8H1KT96SosWddAoBiBj3737vpXnnt7W98bW17ZP7L9k4M7jx/b1zD1b/e9883//pdRQl9y8axHHrp3y+Z1+0e2H9g/+P57b7y+6eW/vPaqeZd3X3LxrClTTokOu/uu2499/mE0zvFj+w7sH4y3sT/7wwdLb7mp/oCG6Ro+3T+y/X/cd+f06afHDb9p44snRkeOHtnzycGd8bANZ/mUAIEOE9DTVXhCO7Onu7qm5YGrp/NQNSaBagps2bwujuA4WKMbp5126i9efubE6MjOdzfNOv/cG29YODw00Fzbb27dMO/y7svmXjJ9+ulXXfn1Z59+rL+vd/fwm/GRu3ZsnnX+ueteejoS+PTjXTfesHDD+ucnBDl6ZM+zTz92xhlfu3r+Zb/qf+HwoeHRo3sHt29859f9f7Pk+ilTTllwzRW7h9+ccBwHECDQAQJ6ugpPop62Px0gUIUl6xoIFCMwenTvwQM7DuwfjDab+/t6+/t6f/jAXV/5ypfPnjnj7W19J0ZHDh8avvnbN97Xs7zFJUXHPP7Yg83HvPub12aedeYD96+IHtq1Y/NFF56/deCXDUf+/pP3fv/Je/V3Htg/eMW8S69fdM3HH+2I7j9yePdTTz4ydepXv/udvxnatSVO9vqz3CZAoCMF9HQVnlY9HVCT9qersGRdA4GyBD54f+v8q+bOu7z73d+8Fl1Dkp7+5ODOhdfNH3PXecP652u12oo7b43eAfKr/heumHfp7377m8CoN9kAACAASURBVBOjIw/cv6JhU/w/3tfx6CP3R0ceP7bvuWd+MnXqV+9Y/t19H7790e/eXXrLTRddeP7AG+uVdFnLw7wEyhLQ02XJ18+rp/V0gED90nGbwOQROH5sX9+GtWfPnLHs+0s/+t278Rce9fTffuubWwd+uWXzukceuveab8ybPv30C2ad997O16PD9o9sn3/V3OZd52Off3j3XbfXarX4GxAf/lFP3NZDu7ZEO+L9fb3rXnp6xZ23zru8e+3zT8S5fPzYvm1vvfrX1y847bRT/+RP/suCa674cPdb8YW5QYDA5BHQ01V4rvV0QE3an67CknUNBAoWOHxo+KF/vGfq1K/+9KlHG346R9TT8UZy95zZD/7g7i2b1x08sCMO3x2Dm675xrwP3t/acNn7Pnx73uXd3XNmd8+ZvXfPtoMHdly74Mr4R4LEB48e3bt/ZPumjS8Obt948MCOhu8y3D+yPfqhIvMu735z64Z40vh0NwgQ6HgBPV2Fp1hP6+kAgSosWddAoEiBoV1brl1w5UUXnv/m1g3N80Y9vfC6+S/0PnXwwP95K3PDYZs2vrjwuvmfHNzZcH/fhrULr5vf39d75pl/umnji+tfee7C2X/x/ntvRD+g46knH5l/1dz6HwwSVfv/evSB+nGee+YnF8w6740trzz15CNnnPG1f/+3n9U/6jYBApNBQE9X4VnW0wE1aX+6CkvWNRAoRuDI4d3PPv3Yn884447l361/j0f97EneP/3iCz+N39ERn3vs8w9X3Hnr/ffeEf1MjwtmnXf+X5wT/6S8gwd2zL9qbq1W654z+56Vy9a99HT03o9tb71av0EevTP7npXLjh/bN3p0713/cNvtt938+Wetfr51fAFuECDQMQJ6ugpPpZ7W0wECVViyroFA3gLHj+17fdPLV8+/7OyZMzasfz56i0X0s6L7+3of/MHd1y648pabb9o9/GbU0/Gbnhsu7OiRPcNDA0tvWXzRhefffdft1y648toFV/b39Z4YHYlS+Ff9L5wYHfn5z9ZMmXLK1KlffeP1X8QjjOz99YH9g/GnY96IBrnxhoV9G9Y+/tiD06efvurh+7zlY0wrdxLoYAE9XYUntwN7ular+fnTVVhbroHASSoQvyt62feX9vf19m1Y+8hD915y8azoHRfnnnNW9CtafvTgys8/23P7bTePuSscPRS/tfrcc85asnjR6ice/u2+d06MjuwY3HT2zBnRr1859OnQnXd875GH7q3fe05It/b5J0477dRarTbzrDOfe+YnKUZIOJHDCBCorICersJTo6cDdme936MKS9Y1EChAYMvmdXO/fnFcwxfMOu/W731r/SvPNb9J+vPP9oz3FouhXVve2PLKB+9vHdn764Zr3j+y/YH7V0y4A91w1pifHj2y59OPd9mWHhPHnQQmg4CersKzrKf1dIBAFZasayBQmMDhQ8Nj/prxwi7ARAQIEJhQQE9PSFTAAXo6oCbtTxewIk1BgAABAgQIJBfQ08mt8jtST+vpAIH8FqKRCRAgQIAAgRQCejoFWuan6OmAmrQ/nfn6MyABAgQIECDQjoCebkcvq3P1tJ4OEMhq2RmHAAECBAgQyERAT2fC2OYgejqgJu1Pt7nanE6AAAECBCaPQH9f75LFi9asXpXrl6ync+VNOLie1tMBAglXlcMIECBAgACBNatXRT92s6tr2pLFi6Jf55Q5i57OnDTFgHo6oCbtT6dYYU4hQIAAAQKTVmB4aKBn5bL4h9nnEdZ6ugqrS0/r6QCBKixZ10CAAAECBE4ugeGhgTWrV3XPmZ1HWOvpKiwGPR1Qk+PtTw8PDUQPxX9OUtzo6pqW+Uf3nNnZfixZvCjzj56Vy7L9WLN6VeYf/X29mX8MDw1k+1GFv1BcAwECBAi0EIi2q7u6psWd0NU1rWflshanTPiQnp6QqIAD9HQGPR3/qXCDQIcJZP4ar6trWrav8brnzM78NV7mA2b7irHDRsv81W9HDpj56/nOGzDb7YkCRnvtVz+/7e++PW3a1Oi/GtOmTf2rhVc/98xP4qmTJ6CeTm6V35F6OoOeXrN6VSf9Fy7zmKjsgJmHXZUHzKOMKzhmh72e8eUQINDxAl/4whfG/Bq7uqYljD89nRAq18P0dAY9neszZHACBCooEO8hZXsjj13DnPZr89hEyOm1d04vdPN4PTlmV7lzcgrMu7w74V99ejohVK6H6Wk9HSCQ61o0OAECBAjkIZDtq754tDxe/vX39U7OV4B/tfDqc885K37l8MUvfnHpLTclXAx6OiFUrofp6YCaHO/7EXN9hgxOgAABAgQIdKRAf19vw0/T61m5bHhoIOiL1dNBXDkdrKf1dIBATqvQsAQIECBAYPIINPxQ6lqt1s6vUdTTVVg5ejqgJu1PV2HJugYCBAgQIHAyCuTxw/JOjI7o6SosBj2tpwMEqrBkXQMBAgQIEDi5BBo2pKOfOZ3Vrx/X01VYDHo6oCbtT1dhyboGAgQIECBwsgj0rFyW7W9vaf7C9XSzSfH36Gk9HSBQ/AI1IwECBAgQOEkFlixeFP3IjvZ/CWILAT3dAqewhzqzp7vnzM5D0P50HqrGJECAAAECHSkwPDSQ1Zs6Wvjo6RY4hT2kpwN2Z/V0YevSRAQIECBAgEASAT2dRCnvY/S0ng4QyHs5Gp8AAQIECBAIEtDTQVw5HaynA2rS/nROq9CwBAgQIECAQDoBPZ3OLduz9LSeDhDIdvEZjQABAgQIEGhTQE+3CZjJ6Xo6oCbtT2ey5gxCgAABAgQIZCWgp7OSbGccPa2nAwTaWWrOJUCAAAECBDIX0NOZk6YYUE8H1KT96RQrzCkECBAgQIBAfgJ6Oj/b5CPraT0dIJB8YTmSAAECBAgQKEBATxeAPOEUejqgJu1PT7ieHECAAAECBAgUKaCni9Qeby49racDBMZbRu4nQIAAAQIEShHQ06WwN0yqpwNq0v50w+rxKQECBAgQIFCugJ4u1z+aXU/r6QCBKixZ10CAAAECBAjEAno6pijxhp4OqEn70yWuVFMTIECAAAECzQJ6utmk+Hv0tJ4OECh+gZqRAAECBAgQaCGgp1vgFPaQng6oSfvTha1LExEgQIAAAQJJBPR0EqW8j9HTejpAIO/laHwCBAgQIEAgSEBPB3HldLCeDqhJ+9M5rULDEiBAgAABAukE9HQ6t2zP0tN6OkAg28VnNAIECBAgQKBNAT3dJmAmp+vpgJq0P53JmjMIAQIECBAgkJWAns5Ksp1x9LSeDhBoZ6k5lwABAgQIEMhcQE9nTppiQD0dUJP2p1OsMKcQIECAAAEC+Qno6fxsk4+sp/V0gEDyheVIAgQIECBAoAABPV0A8oRT6OmAmrQ/PeF6cgABAgQIECBQpICeLlJ7vLn0tJ4OEBhvGbmfAAECBAgQKEVAT5fC3jCpng6oSfvTDavHpwQIECBAgEC5Anq6XP9o9k7r6eGhgVqttmTxojxw9XQeqsYkQIAAAQIEUgvo6dR0GZ6op+1PBwhkuPIMRYAAAQIECLQvoKfbN2x/BD0dUJP2p9tfcEYgQIAAAQIEMhTQ0xliph5KT+vpAIHU68yJBAgQIECAQB4CejoP1dAx9XRATdqfDl1ejidAgAABAgRyFdDTufImHFxP6+kAgYSrymEECBAgQIBAMQJ6uhjn1rPo6YCatD/dejF5lAABAgQIEChYQE8XDD7mdHpaTwcIjLmG3EmAAAECBAiUJaCny5Kvn1dPB9Sk/en6peM2AQIECBAgULqAni79KTgxOqKn9XSAQBWWrGsgQIAAAQIEYgE9HVOUeENPB9Sk/ekSV6qpCRAgQIAAgWYBPd1sUvw9elpPBwgUv0DNSIAAAQIECLQQ0NMtcAp7SE8H1KT96cLWpYkIECBAgACBJAJ6OolS3sfoaT0dIJD3cjQ+AQIECBAgECSgp4O4cjpYTwfUpP3pnFahYQkQIECAAIF0Ano6nVu2Z+lpPR0gkO3iMxoBAgQIECDQpoCebhMwk9P1dEBN2p/OZM0ZhAABAgQIEMhKQE9nJdnOOHpaTwcItLPUnEuAAAECBAhkLqCnMydNMaCeDqhJ+9MpVphTCBAgQIAAgfwE9HR+tslH1tN6OkAg+cJyJAECBAgQIFCAgJ4uAHnCKfR0QE3an55wPTmAAAECBAgQKFJATxepPd5celpPBwiMt4zcT4AAAQIECJQioKdLYW+YVE8H1KT96YbV41MCBAgQIECgXAE9Xa5/NLue1tMBAlVYsq6BAAECBAgQiAX0dExR4g09HVCT9qdLXKmmJkCAAAECBJoF9HSzSfH3dGZP96xclgelns5D1ZgECBAgQIBAagE9nZouwxP1tP3pAIEMV56hCBAgQIAAgfYF9HT7hu2PoKcDatL+dPsLzggECBAgQIBAhgJ6OkPM1EPpaT0dIJB6nTmRAAECBAgQyENAT+ehGjqmng6oSfvTocvL8QQIECBAgECuAno6V96Eg+tpPR0gkHBVOYwAAQIECBAoRkBPF+PcehY9HVCT9qdbLyaPEiBAgAABAgUL6OmCwcecTk/r6QCBMdeQOwkQIECAAIGyBPR0WfL18+rpgJq0P12/dNwmQIAAAQIEShfQ06U/BSdGR/S0ng4QqMKSdQ0ECBAgQIBALKCnY4oSb+jpgJq0P13iSjU1AQIECBAg0Cygp5tNir9HT+vpAIHiF6gZCRAgQIAAgRYCeroFTmEP6emAmrQ/Xdi6NBEBAgQIECCQREBPJ1HK+xg9racDBPJejsYnQIAAAQIEggT0dBBXTgfr6YCatD+d0yo0LAECBAgQIJBOQE+nc8v2LD2tpwMEsl18RiNAgAABAgTaFNDTbQJmcrqeDqhJ+9OZrDmDECBAgAABAlkJ6OmsJNsZR0/r6QCBdpaacwkQIECAAIHMBfR05qQpBtTTATVpfzrFCnMKAQIECBAgkJ+Ans7PNvnIelpPBwgkX1iOJECAAAECBAoQ0NMFIE84hZ4OqEn70xOuJwcQIECAAAECRQro6SK1x5tLT+vpAIHxlpH7CRAgQIAAgVIE9HQp7A2TdmZPr1m9quHrzORT+9OZMBqEAAECBAgQyEpAT2cl2c44ejpgd1ZPt7PUnEugIwUOHxo+sH9w21uv7hjcNHp0b+jXuHv4zZ3vbgo9y/EECBCIBfR0TFHiDT2tpwMESlyppiZQHYHDh4a3vfXq4489ePX8y2p1/3vxhZ9GFzl6dO8ffv/+6NG9nxzcefTInhZXfl/P8pu/fePhQ8Mtjml46PPP9gxu39jf1zvwxvojh3c3POpTAgQmm4CersIz3mk9nesWcq6DV2E1uAYCk1ngo9+9u/6V597e1vfGllf2j2z/5ODO48f2NYD8dt873/zvfxkl9CUXz3rkoXu3bF63f2T7gf2D77/3xuubXv7La6+ad3n3JRfPmjLllOiwu++6/djnH0bjHD+278D+wXgb+7M/fLD0lpvqD2iYruHT/SPb/8d9d06ffnrc8Js2vnhidOTokT2fHNwZD9twlk8JEOhsAT1dhedXTwfszurpKixZ10AgJ4Etm9fFERwHa3TjtNNO/cXLz5wYHdn57qZZ55974w0Lh4cGmmv7za0b5l3efdncS6ZPP/2qK7/+7NOP9ff17h5+Mz5y147Ns84/d91LT0dfwqcf77rxhoUb1j8/4Vd09MieZ59+7Iwzvnb1/Mt+1f/C4UPDo0f3Dm7f+M6v+/9myfVTppyy4Jordg+/OeE4DiBAoPME9HQVnlM9racDBKqwZF0DgZwERo/uPXhgx4H9g9Fmc39fb39f7w8fuOsrX/ny2TNnvL2t78ToyOFDwzd/+8b7epa3uIbomMcfe7D5mHd/89rMs8584P4V0UO7dmy+6MLztw78suHI33/y3u8/ea/+zgP7B6+Yd+n1i675+KMd0f1HDu9+6slHpk796ne/8zdDu7bEyV5/ltsECEwGAT1dhWdZTwfUpP3pKixZ10CgMIEP3t86/6q58y7vfvc3r0WTJunpTw7uXHjd/DF3nTesf75Wq62489boHSC/6n/hinmX/u63vzkxOvLA/SsaNsX/430djz5yf3Tk8WP7nnvmJ1OnfvWO5d/d9+HbH/3u3aW33HTRhecPvLFeSRe2HkxEoJoCeroKz4ue1tMBAlVYsq6BQAECx4/t69uw9uyZM5Z9f+lHv3s3njHq6b/91je3Dvxyy+Z1jzx07zXfmDd9+ukXzDrvvZ2vR4ftH9k+/6q5zbvOxz7/8O67bq/VavE3ID78o564rYd2bYl2xPv7ete99PSKO2+dd3n32uefiHP5+LF929569a+vX3Daaaf+yZ/8lwXXXPHh7rfiC3ODAIFJK6Cnq/DU6+mAmrQ/XYUl6xoI5C1w+NDwQ/94z9SpX/3pU482/HSOqKfjjeTuObMf/MHdWzavO3hgRxy+OwY3XfONeR+8v7XhOvd9+Pa8y7u758zunjN7755tBw/suHbBlfGPBIkPHj26d//I9k0bXxzcvvHggR0N32W4f2R79ENF5l3e/ebWDfGk8eluECAw2QT0dBWecT2tpwMEqrBkXQOBXAWGdm25dsGVF114/ptbNzRPFPX0wuvmv9D71MED/+etzA2Hbdr44sLr5n9ycGfD/X0b1i68bn5/X++ZZ/7ppo0vrn/luQtn/8X7770R/YCOp558ZP5Vc+t/MEhU7f/r0Qfqx3numZ9cMOu8N7a88tSTj5xxxtf+/d9+Vv+o2wQITEIBPV2FJ11PB9Sk/ekqLFnXQCAngSOHdz/79GN/PuOMO5Z/t/49HvXTJXn/9Isv/DR+R0d87rHPP1xx563333tH9DM9Lph13vl/cU78k/IOHtgx/6q5tVqte87se1YuW/fS09F7P7a99Wr9Bnn0zux7Vi47fmzf6NG9d/3DbbffdvPnn7X6+dbxBbhBgECnCujpKjyzelpPBwhUYcm6BgKZCxw/tu/1TS9fPf+ys2fO2LD++egtFtHPiu7v633wB3dfu+DKW26+affwm1FPx296briSo0f2DA8NLL1l8UUXnn/3Xbdfu+DKaxdc2d/Xe2J0JErhX/W/cGJ05Oc/WzNlyilTp371jdd/EY8wsvfXB/YPxp+OeSMa5MYbFvZtWPv4Yw9On376qofv85aPMa3cSWDyCOjpKjzXejqgJu1PV2HJugYCmQvE74pe9v2l/X29fRvWPvLQvZdcPCt6x8W555wV/YqWHz248vPP9tx+281j7gpHD8VvrT73nLOWLF60+omHf7vvnROjIzsGN509c0b061cOfTp05x3fe+She+v3nhN+UWuff+K0006t1WozzzrzuWd+kmKEhBM5jACBk0VAT1fhmdLTejpAoApL1jUQyENgy+Z1c79+cVzDF8w679bvfWv9K881v0n688/2jPcWi6FdW97Y8soH728d2fvrhovcP7L9gftXTLgD3XDWmJ8ePbLn04932ZYeE8edBCahgJ6uwpOupwNq0v50FZasayCQn8DhQ8Nj/prx/GY0MgECBNoU0NNtAmZyup7W0wECmaw5gxAgQIAAAQJZCejprCTbGUdPB9Sk/el2lppzCRAgQIAAgcwF9HTmpCkG1NN6OkAgxQpzCgECBAgQIJCfgJ7Ozzb5yHo6oCbtTydfWI4kQIAAAQIEChDQ0wUgTziFntbTAQITricHECBAgAABAkUK6OkitcebS08H1KT96fGWkfsJECBAgACBUgT0dCnsDZN2Zk9Hv5Cs4Utt/1M93b6hEQgQIECAAIEMBfR0hpiph9LTJe9PDw8NrFm9KvXz50QCBAgQIEBgMgvo6So8+3q6nJ4eHhroWbmsq2ta9PvYqrAUXAMBAgQIECBw0gno6So8ZXq66J7u7+vtWbksyuiurmk9K5cNDw1UYSm4BgIECBAgQOCkE9DTVXjK9HQRPR3tRnfPmR1ldK1W6+qa5m0eVfgD4BoIECBAgMBJLaCnq/D0dVpPr1m9qlarVeT7EcfM6J6Vy6rwxLsGAgQIECBAoAME9HQVnkQ9nf3+dMN7o+O3dtiQrsKKdw0ECBAgQKCTBPR0FZ5NPZ1ZTy9ZvCh+O0eLG11d04I+uufMDvpYsnhR0EfPymXJP9asXhX00d/XG/QxPDQQ9FGFP0KugQABAgQIlCigp0vEj6fW05n19Je+9J/qM/oLX/hC/aduly4Q9DImOrg6r2R6Vi4LeiWzZvWqoFcy/X29XsnEfy26QYAAgZNIQE9X4cnS05n19H/9r38SJeMf/dGX/viPv3L2zBnj1VjCsCs9QF0AgawEEq75+LDx/uyMd3/Qv8ksWbwo+b/JeCVThf9QuQYCBFoI6OkWOIU9pKcz6+kToyPRO6fjBCnsh3gE7Swm3LYM2g1NWCfJo2e8bGq+Py6w1jfiJ8UNApNHoPUfiuZHm/98tbgn+R/n6MiEf0tU6gVMYf8lNhGBdgT0dDt6WZ2rp7Ps6ehZafh+RD9kOqvFWsw45b44Sd4cyWumRRI1PNQcWGPeM3l6dJJ/pfEvnJrQIVonEx7W2QeM+YelxZ0Nf/paf5r8z3voq5fQFzAJd2Tiw4L+Ri3mL/nOm0VPV+E51dPZ93T0vEa/SDz+JsWurmlLFi/K6Qf5VWEluQYCzQLJ/1Ma/9d3whvJ/+XEi5MK9mvcl0muLT54wrKvPzKrgxvGjD4d77LHPHjMKxnvyOaDWxzZfPB4F9bB97f2aX609SuWhkeDXsAk/6sm9NVL83fCjPkL4PR08399ir9HT+fV0/Fz2fBTqKPtamEd+7hBgEASgeQvToaHBiZ8WRIfkPz1yZrVq5J3Q/IcaeiY1p82R9J493RwRzZ/aeMhxPfXnxLf2eJGdHyLA+ofCjq4/sRsb3fPmZ1wwGiNJTw4OqwesNzbXV3Tmv+60NPNJsXfo6dz7+n4SW1+H4gd6xjHDQIECJQiUPoLlTxepSxZvKj1K5P6R5OXZbkpWfzsyWW6uqbFpBOeFR8Z3WhxfMOR3XNmL1m8qPl3WejpUv7qaJhUTxfX0xF9/D6Q+NePj/lys+F58ikBAgQIEDhZBEp/lZL8n1OS/1tKdV6lNLzrQ09X4c+Fni66p+uf9aitm19r1h/jNgECBAgQIEAgepXS7KCnm02Kv0dPl9nTxT/fZiRAgAABAgQ6SUBPV+HZ1NN6OkCgCkvWNRAgQIAAAQKxgJ6OKUq8oacDarK/r7dWq3l7Ronr1dQECBAgQIBAvYCertco63an9XTPymW1Wi2nn0anp8tapuYlQIAAAQIExhTQ02OyFHxnZ/Z0w7e+ZmWqp7OSNA4BAgQIECCQiYCezoSxzUH0tPd7BAi0udqcToAAAQIECGQroKez9Uw3mp4OqEn70+kWmbMIECBAgACBnAT0dE6wQcPqaT0dIBC0thxMgAABAgQI5C2gp/MWTjK+ng6oSfvTSZaUYwgQIECAAIHCBPR0YdQtJtLTejpAoMVK8hABAgQIECBQvICeLt68eUY9HVCT9qebF5B7CBAgQIAAgRIF9HSJ+PHUelpPBwjE68YNAgQIECBAoAoCeroKz4KeDqhJ+9NVWLKugQABAgQIEIgF9HRMUeINPa2nAwRKXKmmJkCAAAECBJoF9HSzSfH36OmAmrQ/XfwCNSMBAgQIECDQQkBPt8Ap7CE9racDBApblyYiQIAAAQIEkgjo6SRKeR+jpwNq0v503svR+AQIECBAgECQgJ4O4srpYD2tpwMEclqFhiVAgAABAgTSCejpdG7ZnqWnA2rS/nS2i89oBAgQIECAQJsCerpNwExO19N6OkAgkzVnEAIECBAgQCArAT2dlWQ743RaTy9ZvKhWqw0PDbSDMt659qfHk3E/AQIECBAgUIqAni6FvWHSzuzphi8yq0/1dFaSxiFAgAABAgQyEdDTmTC2OYieDni3g55uc7U5nQABAgQIEMhWQE9n65luND2tpwME0i0yZxEgQIAAAQI5CejpnGCDhtXTATVpfzpobTmYAAECBAgQyFtAT+ctnGR8Pa2nAwSSLCnHECBAgAABAoUJ6OnCqFtMpKcDatL+dIuV5CECBAgQIECgeAE9Xbx584x6Wk8HCDQvIPcQIECAAAECJQro6RLx46n1dEBN2p+O140bBAgQIECAQBUE9HQVngU9racDBKqwZF0DAQIECBAgEAvo6ZiixBt6OqAm7U+XuFJNTYAAAQIECDQL6Olmk+Lv0dN6OkCg+AVqRgIECBAgQKCFgJ5ugVPYQ3o6oCbtTxe2Lk1EgAABAgQIJBHQ00mU8j5GT+vpAIG8l6PxCRAgQIAAgSABPR3EldPBejqgJu1P57QKDUuAAAECBAikE9DT6dyyPUtP6+kAgWwXn9EIECBAgACBNgX0dJuAmZzeaT3dPWd2rVbLhKZ5EPvTzSbuIUCAAAECBEoU0NMl4sdT6+mA3Vk9Ha8bNwgQIECAAIEqCOjpKjwLelpPBwhUYcm6BgIECBAgQCAW0NMxRYk39HRATdqfLnGlmpoAAQIECBBoFtDTzSbF39OBPd3VNS0nRz2dE6xhCRAgQIAAgXQCejqdW7Zn6Wn70wEC2S4+oxEgQIAAAQJtCujpNgEzOV1PB9Sk/elM1pxBCBAgQIAAgawE9HRWku2Mo6f1dIBAO0vNuQQIECBAgEDmAno6c9IUA+rpgJq0P51ihTmFAAECBAgQyE9AT+dnm3xkPa2nAwSSLyxHEiBAgAABAgUI6OkCkCecQk8H1KT96QnXkwMIECBAgACBIgX0dJHa482lp/V0gMB4y8j9BAgQIECAQCkCeroU9oZJ9XRATdqfblg9PiVAgAABAgTKFdDT5fpHs+tpPR0gUIUl6xoIECBAgACBWEBPxxQl3tDTATVpf7rElWpqAgQIECBAoFlATzebFH+PntbTAQLFL1AzEiBAgAABAi0E9HQLnMIe6rSe7uqa1tU1f5ynBAAAFYRJREFULSc++9M5wRqWAAECBAgQSCegp9O5ZXuWng7YndXT2S4+oxEgQIAAAQJtCujpNgEzOV1P6+kAgUzWnEEIECBAgACBrAT0dFaS7YyjpwNq0v50O0vNuQQIECBAgEDmAno6c9IUA+ppPR0gkGKFOYUAAQIECBDIT0BP52ebfGQ9HVCT9qeTLyxHEiBAgAABAgUI6OkCkCecogN7unvO7Am/7HQH6Ol0bs4iQIAAAQIEchLQ0znBBg2rp+1PBwgErS0HEyBAgAABAnkL6Om8hZOMr6cDatL+dJIl5RgCBAgQIECgMAE9XRh1i4n0tJ4OEGixkjxEgAABAgQIFC+gp4s3b55RTwfUpP3p5gXkHgIECBAgQKBEAT1dIn48tZ7W0wEC8bpxgwABAgQIEKiCgJ6uwrOgpwNq0v50FZasayBAgAABAgRiAT0dU5R4Q0/r6QCBEleqqQkQIECAAIFmAT3dbFL8PXo6oCbtTxe/QM1IgAABAgQItBDQ0y1wCntIT+vpAIHC1qWJCBAgQIAAgSQCejqJUt7HdFpP12o1vx8x70VjfAIECBAgQKAiAnq6Ck+Eng7YnfV+jyosWddAgAABAgQIxAJ6OqYo8Yae1tMBAiWuVFMTIECAAAECzQJ6utmk+Hv0dEBN2p8ufoGakQABAgQIEGghoKdb4BT2kJ7W0wECha1LExEgQIAAAQJJBPR0EqW8j9HTATVpfzrv5Wh8AgQIECBAIEhATwdx5XSwntbTAQI5rULDEiBAgAABAukE9HQ6t2zP6sCeXrJ4UbZG8Wj2p2MKNwgQIECAAIEqCOjpKjwLejpgd1ZPV2HJugYCBAgQIEAgFtDTMUWJN/S0ng4QKHGlmpoAAQIECBBoFtDTzSbF36OnA2rS/nTxC9SMBAgQIECAQAsBPd0Cp7CH9LSeDhAobF2aiAABAgQIEEgioKeTKOV9jJ4OqEn703kvR+MTIECAAAECQQJ6Oogrp4P1tJ4OEMhpFRqWAAECBAgQSCegp9O5ZXuWng6oSfvT2S4+oxEgQIAAAQJtCujpNgEzOV1P6+kAgUzWnEEIECBAgACBrAT0dFaS7YzTUT09PDRQq9X8Ppd2FoRzCRAgQIAAgZNIQE9X4cnS0wG7s97vUYUl6xoIECBAgACBWEBPxxQl3tDTejpAoMSVamoCBAgQIECgWUBPN5sUf4+eDqhJ+9PFL1AzEiBAgAABAi0E9HQLnMIe0tN6OkCgsHVpIgIECBAgQCCJgJ5OopT3MXo6oCbtT+e9HI1PgAABAgQIBAno6SCunA7W03o6QCCnVWhYAgQIECBAIJ2Ank7nlu1ZHdjTPSuXZWsUj2Z/OqZwgwABAgQIEKiCgJ6uwrOgpwN2Z/V0FZasayBAgAABAgRiAT0dU5R4Q0/r6QCBEleqqQkQIECAAIFmAT3dbFL8PXo6oCbtTxe/QM1IgAABAgQItBDQ0y1wCntIT+vpAIHC1qWJCBAgQIAAgSQCejqJUt7H6OmAmrQ/nfdyND4BAgQIECAQJKCng7hyOlhP6+kAgZxWoWEJECBAgACBdAJ6Op1btmfp6YCatD+d7eIzGgECBAgQINCmgJ5uEzCT0/W0ng4QyGTNGYQAAQIECBDISkBPZyXZzjh6OqAm7U+3s9ScS4AAAQIECGQuoKczJ00xYEf1dNS7fj9iinXgFAIECBAgQOBkFNDTVXjW9LT96QCBKixZ10CAAAECBAjEAno6pijxhp4OqEnv9yhxpZqaAAECBAgQaBbQ080mxd+jp/V0gEDxC9SMBAgQIECAQAsBPd0Cp7CH9HRATdqfLmxdmogAAQIECBBIIqCnkyjlfYye1tMBAnkvR+MTIECAAAECQQJ6Oogrp4M7sKfXrF6VE5b96ZxgDUuAAAECBAikE9DT6dyyPUtPB+zO6ulsF5/RCBAgQIAAgTYF9HSbgJmcrqf1dIBAJmvOIAQIECBAgEBWAno6K8l2xtHTATVpf7qdpeZcAgQIECBAIHMBPZ05aYoB9bSeDhBIscKcQoAAAQIECOQnoKfzs00+sp4OqEn708kXliMJECBAgACBAgT0dAHIE06hp/V0gMCE68kBBAgQIECAQJECerpI7fHm0tMBNWl/erxl5H4CBAgQIECgFAE9XQp7w6R6Wk8HCDSsHp8SIECAAAEC5Qro6XL9o9n1dEBN2p+uwpJ1DQQIECBAgEAsoKdjihJvdFRPr1m9qlar+f2IJa4nUxMgQIAAAQJFCujpIrXHm0tP258OEBhvGbmfAAECBAgQKEVAT5fC3jCpng6oSe/3aFg9PiVAgAABAgTKFdDT5fpHs+tpPR0gUIUl6xoIECBAgACBWEBPxxQl3tDTATVpf7rElWpqAgQIECBAoFlATzebFH9PB/Z0f19vTo56OidYwxIgQIAAAQLpBPR0Ordsz9LT9qcDBLJdfEYjQIAAAQIE2hTQ020CZnK6ng6oSfvTmaw5gxAgQIAAAQJZCejprCTbGUdP6+kAgXaWmnMJECBAgACBzAX0dOakKQbU0wE1aX86xQpzCgECBAgQIJCfgJ7Ozzb5yHpaTwcIJF9YjiRAgAABAgQKENDTBSBPOIWeDqhJ+9MTricHECBAgAABAkUK6OkitcebS0/r6QCB8ZaR+wkQIECAAIFSBPR0KewNk+rpgJq0P92wenxKgAABAgQIlCugp8v1j2bX03o6QKAKS9Y1ECBAgAABArGAno4pSryhpwNq0v50iSvV1AQIECBAgECzgJ5uNin+no7q6Z6Vy2q1mt83XvwyMiMBAgQIECBQioCeLoW9YVI9bX86QKBh9fiUAAECBAgQKFdAT5frH82upwNq0vs9qrBkXQMBAgQIECAQC+jpmKLEG3paTwcIlLhSTU2AAAECBAg0C+jpZpPi79HTATVpf7r4BWpGAgQIECBAoIWAnm6BU9hDHdjTw0MDOfHp6ZxgDUuAAAECBAikE9DT6dyyPUtP258OEMh28RmNAAECBAgQaFNAT7cJmMnpejqgJu1PZ7LmDEKAAAECBAhkJaCns5JsZxw9racDBNpZas4lQIAAAQIEMhfQ05mTphhQTwfUpP3pFCvMKQQIECBAgEB+Ano6P9vkI+tpPR0gkHxhOZIAAQIECBAoQEBPF4A84RR6OqAm7U9PuJ4cQIAAAQIECBQpoKeL1B5vLj2tpwMExltG7idAgAABAgRKEdDTpbA3TKqnA2rS/nTD6vEpAQIECBAgUK6Ani7XP5pdT+vpAIEqLFnXQIAAAQIECMQCejqmKPGGng6oSfvTJa5UUxMgQIAAAQLNAnq62aT4e/S0ng4QKH6BmpEAAQIECBBoIaCnW+AU9lBH9fSSxYtqtdrw0EBOfPanc4I1LAECBAgQIJBOQE+nc8v2LD0dsDurp7NdfEYjQIAAAQIE2hTQ020CZnJ6B/Z0Ji5jDqKnx2RxJwECBAgQIFCWgJ4uS75+Xj1tfzpAoH7puE2AAAECBAiULqCnS38KToyO6OmAmrQ/XYUl6xoIECBAgACBWEBPxxQl3tDTejpAoMSVamoCBAgQIECgWUBPN5sUf4+eDqhJ+9PFL1AzEiBAgAABAi0E9HQLnMIe0tN6OkCgsHVpIgIECBAgQCCJgJ5OopT3MXo6oCbtT+e9HI1PgAABAgQIBAno6SCunA7W03o6QCCnVWhYAgQIECBAIJ2Ank7nlu1ZejqgJu1PZ7v4jEaAAAECBAi0KaCn2wTM5HQ9racDBDJZcwYhQIAAAQIEshLQ01lJtjOOng6oSfvT7Sw15xIgQIAAAQKZC+jpzElTDKin9XSAQIoV5hQCBAgQIEAgPwE9nZ9t8pH1dEBN2p9OvrAcSYAAAQIECBQgoKcLQJ5wio7q6e45s2u12oRfc+oD9HRqOicSIECAAAECeQjo6TxUQ8fstJ7u6poWSpD8eD2d3MqRBAgQIECAQAECeroA5Amn0NPe7xEgMOF6cgABAgQIECBQpICeLlJ7vLn0dEBN2p8ebxm5nwABAgQIEChFQE+Xwt4wqZ7W0wECDavHpwQIECBAgEC5Anq6XP9odj0dUJP2p6uwZF0DAQIECBAgEAvo6ZiixBt6Wk8HCJS4Uk1NgAABAgQINAvo6WaT4u/R0wE1aX+6+AVqRgIECBAgQKCFgJ5ugVPYQ3paTwcIFLYuTUSAAAECBAgkEdDTSZTyPkZPB9Sk/em8l6PxCRAgQIAAgSABPR3EldPBelpPBwjktAoNS4AAAQIECKQT0NPp3LI9S08H1KT96WwXn9EIECBAgACBNgX0dJuAmZyup/V0gEAma84gBAgQIECAQFYCejoryXbG0dMBNWl/up2l5lwCBAgQIEAgcwE9nTlpigH1tJ4OEEixwpxCgAABAgQI5Cegp/OzTT5yp/V095zZyb/40CPtT4eKOZ4AAQIECBDIVUBP58qbcHA9HbA7q6cTriqHESBAgAABAsUI6OlinFvP0lE93dU1zf506+fbowQIECBAgEAnCejpKjybetr+dIBAFZasayBAgAABAgRiAT0dU5R4Q08H1KT3e5S4Uk1NgAABAgQINAvo6WaT4u/R03o6QKD4BWpGAgQIECBAoIWAnm6BU9hDejqgJu1PF7YuTUSAAAECBAgkEdDTSZTyPkZP6+kAgbyXo/EJECBAgACBIAE9HcSV08F6OqAm7U/ntAoNS4AAAQIECKQT0NPp3LI9S0/r6QCBbBef0QgQIECAAIE2BfR0m4CZnK6nA2rS/nQma84gBAgQIECAQFYCejoryXbG0dN6OkCgnaXmXAIECBAgQCBzAT2dOWmKAfV0QE3an06xwpxCgAABAgQI5Cegp/OzTT6yntbTAQLJF5YjCRAgQIAAgQIE9HQByBNO0Wk9vWTxogm/5tQH2J9OTedEAgQIECBAIA8BPZ2HauiYejpgd1ZPhy4vxxMgQIAAAQK5CujpXHkTDq6n9XSAQMJV5TACBAgQIECgGAE9XYxz61k6qqdrtZr3e7R+vj1KgAABAgQIdJKAnq7Cs6mnA3Znvd+jCkvWNRAgQIAAAQKxgJ6OKUq8oaf1dIBAiSvV1AQIECBAgECzgJ5uNin+Hj0dUJP2p4tfoGYkQIAAAQIEWgjo6RY4hT2kp/V0gEBh69JEBAgQIECAQBIBPZ1EKe9j9HRATdqfzns5Gp8AAQIECBAIEtDTQVw5Hayn9XSAQE6r0LAECBAgQIBAOgE9nc4t27P0dEBN2p/OdvEZjQABAgQIEGhTQE+3CZjJ6XpaTwcIZLLmDEKAAAECBAhkJaCns5JsZxw9HVCT9qfbWWrOJUCAAAECBDIX0NOZk6YYUE/r6QCBFCvMKQQIECBAgEB+Al1d07q6pg0PDeQ0hc3EJLCd1tM9K5cl+bLTHWNJpXNzFgECBAgQIJCTwJLFi3Ldou5ZuaxWqy1ZvCin6++MYfV0wO6snu6MRe+rIECAAAECHSOwZvWqWq2W3xZ195zZtVqte87sjhHL4wvpqJ7u6pqW6/M9PDRQq9XWrF6VxzNhTAIECBAgQIBACoGurmn5bVHX/vf/7E+3fl46qqejf/LI7y1EUU9bUq2XlEcJECBAgACBIgWit2TkkdRR+eQxcpE+BczVUT2d9/sxolWV61u0C3jKTUGAAAECBAh0ksDw0EC0RR2Fb4Ybi9FOpX+cn3C1dFRPnxgdyfW7XKPXf97vMeGqcgABAgQIECBQpMCa1avipO6eM7u/r7fN2YeHBqJ3Tkdvzm5ztI4/vdN6OkrePLaQ43/y6Pg14QskQIAAAQIETjqB4aGBJYsX1Vf1ksWLlixe1D1ndvwR3bNk8aKelcuaP+JH423p6M3T7df5SYcZesGd1tPRFnUe/zCR98+jCX3mHE+AAAECBAgQaBbo7+utD+uoidP9fyZb3c1X2Hn3dGBPx+8iWrJ4UftvIerv643/DSXXHx7SeWvLV0SAAAECBAiUK9Df1xuVTLQbHW1Ud3VNi7aie1YuW7N61ZrVq4aHBqJkig6O7yz34k+i2Tuwp0+MjsQFHL3pp3vO7OjfO+J/BIlfpUXvt45+0F50WPyPHQ0H5/EekpNoobhUAgQIECBAgACBMQU6s6ejLzX6x46GLI5LOvkN/9gx5tJxJwECBAgQIECAwInRkU7u6eYnOPrnjPj/mw+ov6e/rzf+54/6+90mQIAAAQIECBAgEAtMrp6Ov2w3CBAgQIAAAQIECGQioKdHMnE0CAECBAgQIECAwOQU0NN6mgABAgQIECBAgEB6AT2d3m5yvgLzVRMgQIAAAQIECNQL6Gk9TYAAAQIECBAgQCC9gJ5Ob1f/usRtAgQIECBAgACBySmgp/U0AQIECBAgQIAAgfQCejq93eR8BearJkCAAAECBAgQqBfQ03qaAAECBAgQIECAQHoBPZ3erv51idsECBAgQIAAAQKTU0BP62kCBAgQIECAAAEC6QX0dHq7yfkKzFdNgAABAgQIECBQL6Cn9TQBAgQIECBAgACB9AJ6Or1d/esStwkQIECAAAECBCangJ7W0wQIECBAgAABAgTSC+jp9HaT8xWYr5oAAQIECBAgQKBeQE/raQIECBAgQIAAAQLpBfR0erv61yVuEyBAgAABAgQITE4BPa2nCRAgQIAAAQIECKQX0NPp7SbnKzBfNQECBAgQIECAQL2AntbTBAgQIECAAAECBNIL6On0dvWvS9wmQIAAAQIECBCYnAJ6Wk8TIECAAAECBAgQSC+gp9PbTc5XYL5qAgQIECBAgACBegE9racJECBAgAABAgQIpBfQ0+nt6l+XuE2AAAECBAgQIDA5BfS0niZAgAABAgQIECCQXkBPp7ebnK/AfNUECBAgQIAAAQL1AnpaTxMgQIAAAQIECBBIL6Cn09vVvy5xmwABAgQIECBAYHIK6Gk9TYAAAQIECBAgQCC9gJ5Obzc5X4H5qgkQIECAAAECBOoF9LSeJkCAAAECBAgQIJBeQE+nt6t/XeI2AQIECBAgQIDA5BTQ03qaAAECBAgQIECAQHoBPZ3ebnK+AvNVEyBAgAABAgQI1AvoaT1NgAABAgQIECBAIL2Ank5vV/+6xG0CBAgQIECAAIHJKaCn9TQBAgQIECBAgACB9AJ6Or3d5HwF5qsmQIAAAQIECBCoF9DTepoAAQIECBAgQIBAegE9nd6u/nWJ2wQIECBAgAABApNTQE/raQIECBAgQIAAAQLpBfR0ervJ+QrMV02AAAECBAgQIFAvoKf1NAECBAgQIECAAIH0Ano6vV396xK3CRAgQIAAAQIEJqeAntbTBAgQIECAAAECBNIL6On0dpPzFZivmgABAgQIECBAoF5AT+tpAgQIECBAgAABAukF/h8GmgbRK16LKAAAAABJRU5ErkJggg==;" vertex="1" parent="1">
          <mxGeometry x="60" y="60" width="741.6" height="810" as="geometry" />
        </mxCell>
      </root>
    </mxGraphModel>
  </diagram>
</mxfile>
